<svg width="704" height="1340" viewBox="0 0 704 1340" fill="none" xmlns="http://www.w3.org/2000/svg">
<mask id="mask0_1370_4297" style="mask-type:luminance" maskUnits="userSpaceOnUse" x="0" y="0" width="704" height="1340">
<path d="M6.10352e-05 0H704V1340H6.10352e-05V0Z" fill="white"/>
</mask>
<g mask="url(#mask0_1370_4297)">
<g style="mix-blend-mode:multiply" opacity="0.3">
<path d="M680.822 36.2842C680.822 43.5962 674.888 49.3906 667.713 49.3906C660.538 49.3906 654.605 43.4582 654.605 36.2842C654.605 29.1101 660.538 23.1777 667.713 23.1777C674.888 23.1777 680.822 29.1101 680.822 36.2842Z" fill="#B5D6D9"/>
<path d="M680.822 88.8476C680.822 96.1596 674.888 101.954 667.713 101.954C660.538 101.954 654.605 96.0217 654.605 88.8476C654.605 81.6736 660.538 75.7412 667.713 75.7412C674.888 75.7412 680.822 81.6736 680.822 88.8476Z" fill="#B5D6D9"/>
<path d="M680.822 141.549C680.822 148.861 674.888 154.655 667.713 154.655C660.538 154.655 654.605 148.723 654.605 141.549C654.605 134.375 660.538 128.443 667.713 128.443C674.888 128.443 680.822 134.375 680.822 141.549Z" fill="#B5D6D9"/>
<path d="M680.822 194.113C680.822 201.425 674.888 207.22 667.713 207.22C660.538 207.22 654.605 201.287 654.605 194.113C654.605 186.939 660.538 181.007 667.713 181.007C674.888 181.007 680.822 186.939 680.822 194.113Z" fill="#B5D6D9"/>
<path d="M680.822 246.676C680.822 253.988 674.888 259.783 667.713 259.783C660.538 259.783 654.605 253.851 654.605 246.676C654.605 239.502 660.538 233.57 667.713 233.57C674.888 233.57 680.822 239.502 680.822 246.676Z" fill="#B5D6D9"/>
<path d="M680.822 299.24C680.822 306.552 674.888 312.347 667.713 312.347C660.538 312.347 654.605 306.414 654.605 299.24C654.605 292.066 660.538 286.134 667.713 286.134C674.888 286.134 680.822 292.066 680.822 299.24Z" fill="#B5D6D9"/>
<path d="M680.822 351.804C680.822 359.116 674.888 364.911 667.713 364.911C660.538 364.911 654.605 358.978 654.605 351.804C654.605 344.63 660.538 338.698 667.713 338.698C674.888 338.698 680.822 344.63 680.822 351.804Z" fill="#B5D6D9"/>
<path d="M680.822 404.505C680.822 411.817 674.888 417.611 667.713 417.611C660.538 417.611 654.605 411.679 654.605 404.505C654.605 397.331 660.538 391.398 667.713 391.398C674.888 391.398 680.822 397.331 680.822 404.505Z" fill="#B5D6D9"/>
<path d="M680.822 457.069C680.822 464.381 674.888 470.175 667.713 470.175C660.538 470.175 654.605 464.243 654.605 457.069C654.605 449.895 660.538 443.962 667.713 443.962C674.888 443.962 680.822 449.895 680.822 457.069Z" fill="#B5D6D9"/>
<path d="M680.822 509.633C680.822 516.945 674.888 522.739 667.713 522.739C660.538 522.739 654.605 516.807 654.605 509.633C654.605 502.459 660.538 496.526 667.713 496.526C674.888 496.526 680.822 502.459 680.822 509.633Z" fill="#B5D6D9"/>
<path d="M680.822 562.196C680.822 569.508 674.888 575.303 667.713 575.303C660.538 575.303 654.605 569.37 654.605 562.196C654.605 555.022 660.538 549.09 667.713 549.09C674.888 549.09 680.822 555.022 680.822 562.196Z" fill="#B5D6D9"/>
<path d="M680.822 614.897C680.822 622.209 674.888 628.004 667.713 628.004C660.538 628.004 654.605 622.071 654.605 614.897C654.605 607.723 660.538 601.791 667.713 601.791C674.888 601.791 680.822 607.723 680.822 614.897Z" fill="#B5D6D9"/>
<path d="M680.822 667.461C680.822 674.773 674.888 680.568 667.713 680.568C660.538 680.568 654.605 674.635 654.605 667.461C654.605 660.287 660.538 654.355 667.713 654.355C674.888 654.355 680.822 660.287 680.822 667.461Z" fill="#B5D6D9"/>
<path d="M680.822 720.025C680.822 727.337 674.888 733.131 667.713 733.131C660.538 733.131 654.605 727.199 654.605 720.025C654.605 712.851 660.538 706.918 667.713 706.918C674.888 706.918 680.822 712.851 680.822 720.025Z" fill="#B5D6D9"/>
<path d="M680.822 772.588C680.822 779.9 674.888 785.695 667.713 785.695C660.538 785.695 654.605 779.762 654.605 772.588C654.605 765.414 660.538 759.482 667.713 759.482C674.888 759.482 680.822 765.414 680.822 772.588Z" fill="#B5D6D9"/>
<path d="M680.822 825.152C680.822 832.464 674.888 838.258 667.713 838.258C660.538 838.258 654.605 832.326 654.605 825.152C654.605 817.978 660.538 812.046 667.713 812.046C674.888 812.046 680.822 817.978 680.822 825.152Z" fill="#B5D6D9"/>
<path d="M680.822 877.853C680.822 885.165 674.888 890.96 667.713 890.96C660.538 890.96 654.605 885.027 654.605 877.853C654.605 870.679 660.538 864.747 667.713 864.747C674.888 864.747 680.822 870.679 680.822 877.853Z" fill="#B5D6D9"/>
<path d="M680.822 930.418C680.822 937.73 674.888 943.524 667.713 943.524C660.538 943.524 654.605 937.592 654.605 930.418C654.605 923.244 660.538 917.311 667.713 917.311C674.888 917.311 680.822 923.244 680.822 930.418Z" fill="#B5D6D9"/>
<path d="M680.822 982.981C680.822 990.293 674.888 996.088 667.713 996.088C660.538 996.088 654.605 990.155 654.605 982.981C654.605 975.807 660.538 969.875 667.713 969.875C674.888 969.875 680.822 975.807 680.822 982.981Z" fill="#B5D6D9"/>
<path d="M680.822 1035.54C680.822 1042.86 674.888 1048.65 667.713 1048.65C660.538 1048.65 654.605 1042.72 654.605 1035.54C654.605 1028.37 660.538 1022.44 667.713 1022.44C674.888 1022.44 680.822 1028.37 680.822 1035.54Z" fill="#B5D6D9"/>
<path d="M680.822 1088.11C680.822 1095.42 674.888 1101.21 667.713 1101.21C660.538 1101.21 654.605 1095.28 654.605 1088.11C654.605 1080.93 660.538 1075 667.713 1075C674.888 1075 680.822 1080.93 680.822 1088.11Z" fill="#B5D6D9"/>
<path d="M680.822 1140.81C680.822 1148.12 674.888 1153.92 667.713 1153.92C660.538 1153.92 654.605 1147.98 654.605 1140.81C654.605 1133.64 660.538 1127.7 667.713 1127.7C674.888 1127.7 680.822 1133.64 680.822 1140.81Z" fill="#B5D6D9"/>
<path d="M680.822 1193.37C680.822 1200.69 674.888 1206.48 667.713 1206.48C660.538 1206.48 654.605 1200.55 654.605 1193.37C654.605 1186.2 660.538 1180.27 667.713 1180.27C674.888 1180.27 680.822 1186.2 680.822 1193.37Z" fill="#B5D6D9"/>
<path d="M680.822 1245.94C680.822 1253.25 674.888 1259.04 667.713 1259.04C660.538 1259.04 654.605 1253.11 654.605 1245.94C654.605 1238.76 660.538 1232.83 667.713 1232.83C674.888 1232.83 680.822 1238.76 680.822 1245.94Z" fill="#B5D6D9"/>
<path d="M680.822 1298.5C680.822 1305.81 674.888 1311.61 667.713 1311.61C660.538 1311.61 654.605 1305.67 654.605 1298.5C654.605 1291.33 660.538 1285.39 667.713 1285.39C674.888 1285.39 680.822 1291.33 680.822 1298.5Z" fill="#B5D6D9"/>
<path d="M680.822 1351.2C680.822 1358.51 674.888 1364.31 667.713 1364.31C660.538 1364.31 654.605 1358.38 654.605 1351.2C654.605 1344.03 660.538 1338.1 667.713 1338.1C674.888 1338.1 680.822 1344.03 680.822 1351.2Z" fill="#B5D6D9"/>
<path d="M628.111 36.2842C628.111 43.5962 622.178 49.3906 615.003 49.3906C607.828 49.3906 601.894 43.4582 601.894 36.2842C601.894 29.1101 607.828 23.1777 615.003 23.1777C622.178 23.1777 628.111 29.1101 628.111 36.2842Z" fill="#B5D6D9"/>
<path d="M628.111 88.8476C628.111 96.1596 622.178 101.954 615.003 101.954C607.828 101.954 601.894 96.0217 601.894 88.8476C601.894 81.6736 607.828 75.7412 615.003 75.7412C622.178 75.7412 628.111 81.6736 628.111 88.8476Z" fill="#B5D6D9"/>
<path d="M628.111 141.549C628.111 148.861 622.178 154.655 615.003 154.655C607.828 154.655 601.894 148.723 601.894 141.549C601.894 134.375 607.828 128.443 615.003 128.443C622.178 128.443 628.111 134.375 628.111 141.549Z" fill="#B5D6D9"/>
<path d="M628.111 194.113C628.111 201.425 622.178 207.22 615.003 207.22C607.828 207.22 601.894 201.287 601.894 194.113C601.894 186.939 607.828 181.007 615.003 181.007C622.178 181.007 628.111 186.939 628.111 194.113Z" fill="#B5D6D9"/>
<path d="M628.111 246.676C628.111 253.988 622.178 259.783 615.003 259.783C607.828 259.783 601.894 253.851 601.894 246.676C601.894 239.502 607.828 233.57 615.003 233.57C622.178 233.57 628.111 239.502 628.111 246.676Z" fill="#B5D6D9"/>
<path d="M628.111 299.24C628.111 306.552 622.178 312.347 615.003 312.347C607.828 312.347 601.894 306.414 601.894 299.24C601.894 292.066 607.828 286.134 615.003 286.134C622.178 286.134 628.111 292.066 628.111 299.24Z" fill="#B5D6D9"/>
<path d="M628.111 351.804C628.111 359.116 622.178 364.911 615.003 364.911C607.828 364.911 601.894 358.978 601.894 351.804C601.894 344.63 607.828 338.698 615.003 338.698C622.178 338.698 628.111 344.63 628.111 351.804Z" fill="#B5D6D9"/>
<path d="M628.111 404.505C628.111 411.817 622.178 417.611 615.003 417.611C607.828 417.611 601.894 411.679 601.894 404.505C601.894 397.331 607.828 391.398 615.003 391.398C622.178 391.398 628.111 397.331 628.111 404.505Z" fill="#B5D6D9"/>
<path d="M628.111 457.069C628.111 464.381 622.178 470.175 615.003 470.175C607.828 470.175 601.894 464.243 601.894 457.069C601.894 449.895 607.828 443.962 615.003 443.962C622.178 443.962 628.111 449.895 628.111 457.069Z" fill="#B5D6D9"/>
<path d="M628.111 509.633C628.111 516.945 622.178 522.739 615.003 522.739C607.828 522.739 601.894 516.807 601.894 509.633C601.894 502.459 607.828 496.526 615.003 496.526C622.178 496.526 628.111 502.459 628.111 509.633Z" fill="#B5D6D9"/>
<path d="M628.111 562.196C628.111 569.508 622.178 575.303 615.003 575.303C607.828 575.303 601.894 569.37 601.894 562.196C601.894 555.022 607.828 549.09 615.003 549.09C622.178 549.09 628.111 555.022 628.111 562.196Z" fill="#B5D6D9"/>
<path d="M628.111 614.897C628.111 622.209 622.178 628.004 615.003 628.004C607.828 628.004 601.894 622.071 601.894 614.897C601.894 607.723 607.828 601.791 615.003 601.791C622.178 601.791 628.111 607.723 628.111 614.897Z" fill="#B5D6D9"/>
<path d="M628.111 667.461C628.111 674.773 622.178 680.568 615.003 680.568C607.828 680.568 601.894 674.635 601.894 667.461C601.894 660.287 607.828 654.355 615.003 654.355C622.178 654.355 628.111 660.287 628.111 667.461Z" fill="#B5D6D9"/>
<path d="M628.111 720.025C628.111 727.337 622.178 733.131 615.003 733.131C607.828 733.131 601.894 727.199 601.894 720.025C601.894 712.851 607.828 706.918 615.003 706.918C622.178 706.918 628.111 712.851 628.111 720.025Z" fill="#B5D6D9"/>
<path d="M628.111 772.588C628.111 779.9 622.178 785.695 615.003 785.695C607.828 785.695 601.894 779.762 601.894 772.588C601.894 765.414 607.828 759.482 615.003 759.482C622.178 759.482 628.111 765.414 628.111 772.588Z" fill="#B5D6D9"/>
<path d="M628.111 825.152C628.111 832.464 622.178 838.258 615.003 838.258C607.828 838.258 601.894 832.326 601.894 825.152C601.894 817.978 607.828 812.046 615.003 812.046C622.178 812.046 628.111 817.978 628.111 825.152Z" fill="#B5D6D9"/>
<path d="M628.111 877.853C628.111 885.165 622.178 890.96 615.003 890.96C607.828 890.96 601.894 885.027 601.894 877.853C601.894 870.679 607.828 864.747 615.003 864.747C622.178 864.747 628.111 870.679 628.111 877.853Z" fill="#B5D6D9"/>
<path d="M628.111 930.418C628.111 937.73 622.178 943.524 615.003 943.524C607.828 943.524 601.894 937.592 601.894 930.418C601.894 923.244 607.828 917.311 615.003 917.311C622.178 917.311 628.111 923.244 628.111 930.418Z" fill="#B5D6D9"/>
<path d="M628.111 982.981C628.111 990.293 622.178 996.088 615.003 996.088C607.828 996.088 601.894 990.155 601.894 982.981C601.894 975.807 607.828 969.875 615.003 969.875C622.178 969.875 628.111 975.807 628.111 982.981Z" fill="#B5D6D9"/>
<path d="M628.111 1035.54C628.111 1042.86 622.178 1048.65 615.003 1048.65C607.828 1048.65 601.894 1042.72 601.894 1035.54C601.894 1028.37 607.828 1022.44 615.003 1022.44C622.178 1022.44 628.111 1028.37 628.111 1035.54Z" fill="#B5D6D9"/>
<path d="M628.111 1088.11C628.111 1095.42 622.178 1101.21 615.003 1101.21C607.828 1101.21 601.894 1095.28 601.894 1088.11C601.894 1080.93 607.828 1075 615.003 1075C622.178 1075 628.111 1080.93 628.111 1088.11Z" fill="#B5D6D9"/>
<path d="M628.111 1140.81C628.111 1148.12 622.178 1153.92 615.003 1153.92C607.828 1153.92 601.894 1147.98 601.894 1140.81C601.894 1133.64 607.828 1127.7 615.003 1127.7C622.178 1127.7 628.111 1133.64 628.111 1140.81Z" fill="#B5D6D9"/>
<path d="M628.111 1193.37C628.111 1200.69 622.178 1206.48 615.003 1206.48C607.828 1206.48 601.894 1200.55 601.894 1193.37C601.894 1186.2 607.828 1180.27 615.003 1180.27C622.178 1180.27 628.111 1186.2 628.111 1193.37Z" fill="#B5D6D9"/>
<path d="M628.111 1245.94C628.111 1253.25 622.178 1259.04 615.003 1259.04C607.828 1259.04 601.894 1253.11 601.894 1245.94C601.894 1238.76 607.828 1232.83 615.003 1232.83C622.178 1232.83 628.111 1238.76 628.111 1245.94Z" fill="#B5D6D9"/>
<path d="M628.111 1298.5C628.111 1305.81 622.178 1311.61 615.003 1311.61C607.828 1311.61 601.894 1305.67 601.894 1298.5C601.894 1291.33 607.828 1285.39 615.003 1285.39C622.178 1285.39 628.111 1291.33 628.111 1298.5Z" fill="#B5D6D9"/>
<path d="M628.111 1351.2C628.111 1358.51 622.178 1364.31 615.003 1364.31C607.828 1364.31 601.894 1358.38 601.894 1351.2C601.894 1344.03 607.828 1338.1 615.003 1338.1C622.178 1338.1 628.111 1344.03 628.111 1351.2Z" fill="#B5D6D9"/>
<path d="M575.539 36.2842C575.539 43.5962 569.606 49.3906 562.43 49.3906C555.255 49.3906 549.322 43.4582 549.322 36.2842C549.322 29.1101 555.255 23.1777 562.43 23.1777C569.606 23.1777 575.539 29.1101 575.539 36.2842Z" fill="#B5D6D9"/>
<path d="M575.539 88.8476C575.539 96.1596 569.606 101.954 562.43 101.954C555.255 101.954 549.322 96.0217 549.322 88.8476C549.322 81.6736 555.255 75.7412 562.43 75.7412C569.606 75.7412 575.539 81.6736 575.539 88.8476Z" fill="#B5D6D9"/>
<path d="M575.539 141.549C575.539 148.861 569.606 154.655 562.43 154.655C555.255 154.655 549.322 148.723 549.322 141.549C549.322 134.375 555.255 128.443 562.43 128.443C569.606 128.443 575.539 134.375 575.539 141.549Z" fill="#B5D6D9"/>
<path d="M575.539 194.113C575.539 201.425 569.606 207.22 562.43 207.22C555.255 207.22 549.322 201.287 549.322 194.113C549.322 186.939 555.255 181.007 562.43 181.007C569.606 181.007 575.539 186.939 575.539 194.113Z" fill="#B5D6D9"/>
<path d="M575.539 246.676C575.539 253.988 569.606 259.783 562.43 259.783C555.255 259.783 549.322 253.851 549.322 246.676C549.322 239.502 555.255 233.57 562.43 233.57C569.606 233.57 575.539 239.502 575.539 246.676Z" fill="#B5D6D9"/>
<path d="M575.539 299.24C575.539 306.552 569.606 312.347 562.43 312.347C555.255 312.347 549.322 306.414 549.322 299.24C549.322 292.066 555.255 286.134 562.43 286.134C569.606 286.134 575.539 292.066 575.539 299.24Z" fill="#B5D6D9"/>
<path d="M575.539 351.804C575.539 359.116 569.606 364.911 562.43 364.911C555.255 364.911 549.322 358.978 549.322 351.804C549.322 344.63 555.255 338.698 562.43 338.698C569.606 338.698 575.539 344.63 575.539 351.804Z" fill="#B5D6D9"/>
<path d="M575.539 404.505C575.539 411.817 569.606 417.611 562.43 417.611C555.255 417.611 549.322 411.679 549.322 404.505C549.322 397.331 555.255 391.398 562.43 391.398C569.606 391.398 575.539 397.331 575.539 404.505Z" fill="#B5D6D9"/>
<path d="M575.539 457.069C575.539 464.381 569.606 470.175 562.43 470.175C555.255 470.175 549.322 464.243 549.322 457.069C549.322 449.895 555.255 443.962 562.43 443.962C569.606 443.962 575.539 449.895 575.539 457.069Z" fill="#B5D6D9"/>
<path d="M575.539 509.633C575.539 516.945 569.606 522.739 562.43 522.739C555.255 522.739 549.322 516.807 549.322 509.633C549.322 502.459 555.255 496.526 562.43 496.526C569.606 496.526 575.539 502.459 575.539 509.633Z" fill="#B5D6D9"/>
<path d="M575.539 562.196C575.539 569.508 569.606 575.303 562.43 575.303C555.255 575.303 549.322 569.37 549.322 562.196C549.322 555.022 555.255 549.09 562.43 549.09C569.606 549.09 575.539 555.022 575.539 562.196Z" fill="#B5D6D9"/>
<path d="M575.539 614.897C575.539 622.209 569.606 628.004 562.43 628.004C555.255 628.004 549.322 622.071 549.322 614.897C549.322 607.723 555.255 601.791 562.43 601.791C569.606 601.791 575.539 607.723 575.539 614.897Z" fill="#B5D6D9"/>
<path d="M575.539 667.461C575.539 674.773 569.606 680.568 562.43 680.568C555.255 680.568 549.322 674.635 549.322 667.461C549.322 660.287 555.255 654.355 562.43 654.355C569.606 654.355 575.539 660.287 575.539 667.461Z" fill="#B5D6D9"/>
<path d="M575.539 720.025C575.539 727.337 569.606 733.131 562.43 733.131C555.255 733.131 549.322 727.199 549.322 720.025C549.322 712.851 555.255 706.918 562.43 706.918C569.606 706.918 575.539 712.851 575.539 720.025Z" fill="#B5D6D9"/>
<path d="M575.539 772.588C575.539 779.9 569.606 785.695 562.43 785.695C555.255 785.695 549.322 779.762 549.322 772.588C549.322 765.414 555.255 759.482 562.43 759.482C569.606 759.482 575.539 765.414 575.539 772.588Z" fill="#B5D6D9"/>
<path d="M575.539 825.152C575.539 832.464 569.606 838.258 562.43 838.258C555.255 838.258 549.322 832.326 549.322 825.152C549.322 817.978 555.255 812.046 562.43 812.046C569.606 812.046 575.539 817.978 575.539 825.152Z" fill="#B5D6D9"/>
<path d="M575.539 877.853C575.539 885.165 569.606 890.96 562.43 890.96C555.255 890.96 549.322 885.027 549.322 877.853C549.322 870.679 555.255 864.747 562.43 864.747C569.606 864.747 575.539 870.679 575.539 877.853Z" fill="#B5D6D9"/>
<path d="M575.539 930.418C575.539 937.73 569.606 943.524 562.43 943.524C555.255 943.524 549.322 937.592 549.322 930.418C549.322 923.244 555.255 917.311 562.43 917.311C569.606 917.311 575.539 923.244 575.539 930.418Z" fill="#B5D6D9"/>
<path d="M575.539 982.981C575.539 990.293 569.606 996.088 562.43 996.088C555.255 996.088 549.322 990.155 549.322 982.981C549.322 975.807 555.255 969.875 562.43 969.875C569.606 969.875 575.539 975.807 575.539 982.981Z" fill="#B5D6D9"/>
<path d="M575.539 1035.54C575.539 1042.86 569.606 1048.65 562.43 1048.65C555.255 1048.65 549.322 1042.72 549.322 1035.54C549.322 1028.37 555.255 1022.44 562.43 1022.44C569.606 1022.44 575.539 1028.37 575.539 1035.54Z" fill="#B5D6D9"/>
<path d="M575.539 1088.11C575.539 1095.42 569.606 1101.21 562.43 1101.21C555.255 1101.21 549.322 1095.28 549.322 1088.11C549.322 1080.93 555.255 1075 562.43 1075C569.606 1075 575.539 1080.93 575.539 1088.11Z" fill="#B5D6D9"/>
<path d="M575.539 1140.81C575.539 1148.12 569.606 1153.92 562.43 1153.92C555.255 1153.92 549.322 1147.98 549.322 1140.81C549.322 1133.64 555.255 1127.7 562.43 1127.7C569.606 1127.7 575.539 1133.64 575.539 1140.81Z" fill="#B5D6D9"/>
<path d="M575.539 1193.37C575.539 1200.69 569.606 1206.48 562.43 1206.48C555.255 1206.48 549.322 1200.55 549.322 1193.37C549.322 1186.2 555.255 1180.27 562.43 1180.27C569.606 1180.27 575.539 1186.2 575.539 1193.37Z" fill="#B5D6D9"/>
<path d="M575.539 1245.94C575.539 1253.25 569.606 1259.04 562.43 1259.04C555.255 1259.04 549.322 1253.11 549.322 1245.94C549.322 1238.76 555.255 1232.83 562.43 1232.83C569.606 1232.83 575.539 1238.76 575.539 1245.94Z" fill="#B5D6D9"/>
<path d="M575.539 1298.5C575.539 1305.81 569.606 1311.61 562.43 1311.61C555.255 1311.61 549.322 1305.67 549.322 1298.5C549.322 1291.33 555.255 1285.39 562.43 1285.39C569.606 1285.39 575.539 1291.33 575.539 1298.5Z" fill="#B5D6D9"/>
<path d="M575.539 1351.2C575.539 1358.51 569.606 1364.31 562.43 1364.31C555.255 1364.31 549.322 1358.38 549.322 1351.2C549.322 1344.03 555.255 1338.1 562.43 1338.1C569.606 1338.1 575.539 1344.03 575.539 1351.2Z" fill="#B5D6D9"/>
<path d="M522.968 36.2842C522.968 43.5962 517.034 49.3906 509.859 49.3906C502.684 49.3906 496.751 43.4582 496.751 36.2842C496.751 29.1101 502.684 23.1777 509.859 23.1777C517.034 23.1777 522.968 29.1101 522.968 36.2842Z" fill="#B5D6D9"/>
<path d="M522.968 88.8476C522.968 96.1596 517.034 101.954 509.859 101.954C502.684 101.954 496.751 96.0217 496.751 88.8476C496.751 81.6736 502.684 75.7412 509.859 75.7412C517.034 75.7412 522.968 81.6736 522.968 88.8476Z" fill="#B5D6D9"/>
<path d="M522.968 141.549C522.968 148.861 517.034 154.655 509.859 154.655C502.684 154.655 496.751 148.723 496.751 141.549C496.751 134.375 502.684 128.443 509.859 128.443C517.034 128.443 522.968 134.375 522.968 141.549Z" fill="#B5D6D9"/>
<path d="M522.968 194.113C522.968 201.425 517.034 207.22 509.859 207.22C502.684 207.22 496.751 201.287 496.751 194.113C496.751 186.939 502.684 181.007 509.859 181.007C517.034 181.007 522.968 186.939 522.968 194.113Z" fill="#B5D6D9"/>
<path d="M522.968 246.676C522.968 253.988 517.034 259.783 509.859 259.783C502.684 259.783 496.751 253.851 496.751 246.676C496.751 239.502 502.684 233.57 509.859 233.57C517.034 233.57 522.968 239.502 522.968 246.676Z" fill="#B5D6D9"/>
<path d="M522.968 299.24C522.968 306.552 517.034 312.347 509.859 312.347C502.684 312.347 496.751 306.414 496.751 299.24C496.751 292.066 502.684 286.134 509.859 286.134C517.034 286.134 522.968 292.066 522.968 299.24Z" fill="#B5D6D9"/>
<path d="M522.968 351.804C522.968 359.116 517.034 364.911 509.859 364.911C502.684 364.911 496.751 358.978 496.751 351.804C496.751 344.63 502.684 338.698 509.859 338.698C517.034 338.698 522.968 344.63 522.968 351.804Z" fill="#B5D6D9"/>
<path d="M522.968 404.505C522.968 411.817 517.034 417.611 509.859 417.611C502.684 417.611 496.751 411.679 496.751 404.505C496.751 397.331 502.684 391.398 509.859 391.398C517.034 391.398 522.968 397.331 522.968 404.505Z" fill="#B5D6D9"/>
<path d="M522.968 457.069C522.968 464.381 517.034 470.175 509.859 470.175C502.684 470.175 496.751 464.243 496.751 457.069C496.751 449.895 502.684 443.962 509.859 443.962C517.034 443.962 522.968 449.895 522.968 457.069Z" fill="#B5D6D9"/>
<path d="M522.968 509.633C522.968 516.945 517.034 522.739 509.859 522.739C502.684 522.739 496.751 516.807 496.751 509.633C496.751 502.459 502.684 496.526 509.859 496.526C517.034 496.526 522.968 502.459 522.968 509.633Z" fill="#B5D6D9"/>
<path d="M522.968 562.196C522.968 569.508 517.034 575.303 509.859 575.303C502.684 575.303 496.751 569.37 496.751 562.196C496.751 555.022 502.684 549.09 509.859 549.09C517.034 549.09 522.968 555.022 522.968 562.196Z" fill="#B5D6D9"/>
<path d="M522.968 614.897C522.968 622.209 517.034 628.004 509.859 628.004C502.684 628.004 496.751 622.071 496.751 614.897C496.751 607.723 502.684 601.791 509.859 601.791C517.034 601.791 522.968 607.723 522.968 614.897Z" fill="#B5D6D9"/>
<path d="M522.968 667.461C522.968 674.773 517.034 680.568 509.859 680.568C502.684 680.568 496.751 674.635 496.751 667.461C496.751 660.287 502.684 654.355 509.859 654.355C517.034 654.355 522.968 660.287 522.968 667.461Z" fill="#B5D6D9"/>
<path d="M522.968 720.025C522.968 727.337 517.034 733.131 509.859 733.131C502.684 733.131 496.751 727.199 496.751 720.025C496.751 712.851 502.684 706.918 509.859 706.918C517.034 706.918 522.968 712.851 522.968 720.025Z" fill="#B5D6D9"/>
<path d="M522.968 772.588C522.968 779.9 517.034 785.695 509.859 785.695C502.684 785.695 496.751 779.762 496.751 772.588C496.751 765.414 502.684 759.482 509.859 759.482C517.034 759.482 522.968 765.414 522.968 772.588Z" fill="#B5D6D9"/>
<path d="M522.968 825.152C522.968 832.464 517.034 838.258 509.859 838.258C502.684 838.258 496.751 832.326 496.751 825.152C496.751 817.978 502.684 812.046 509.859 812.046C517.034 812.046 522.968 817.978 522.968 825.152Z" fill="#B5D6D9"/>
<path d="M522.968 877.853C522.968 885.165 517.034 890.96 509.859 890.96C502.684 890.96 496.751 885.027 496.751 877.853C496.751 870.679 502.684 864.747 509.859 864.747C517.034 864.747 522.968 870.679 522.968 877.853Z" fill="#B5D6D9"/>
<path d="M522.968 930.418C522.968 937.73 517.034 943.524 509.859 943.524C502.684 943.524 496.751 937.592 496.751 930.418C496.751 923.244 502.684 917.311 509.859 917.311C517.034 917.311 522.968 923.244 522.968 930.418Z" fill="#B5D6D9"/>
<path d="M522.968 982.981C522.968 990.293 517.034 996.088 509.859 996.088C502.684 996.088 496.751 990.155 496.751 982.981C496.751 975.807 502.684 969.875 509.859 969.875C517.034 969.875 522.968 975.807 522.968 982.981Z" fill="#B5D6D9"/>
<path d="M522.968 1035.54C522.968 1042.86 517.034 1048.65 509.859 1048.65C502.684 1048.65 496.751 1042.72 496.751 1035.54C496.751 1028.37 502.684 1022.44 509.859 1022.44C517.034 1022.44 522.968 1028.37 522.968 1035.54Z" fill="#B5D6D9"/>
<path d="M522.968 1088.11C522.968 1095.42 517.034 1101.21 509.859 1101.21C502.684 1101.21 496.751 1095.28 496.751 1088.11C496.751 1080.93 502.684 1075 509.859 1075C517.034 1075 522.968 1080.93 522.968 1088.11Z" fill="#B5D6D9"/>
<path d="M522.968 1140.81C522.968 1148.12 517.034 1153.92 509.859 1153.92C502.684 1153.92 496.751 1147.98 496.751 1140.81C496.751 1133.64 502.684 1127.7 509.859 1127.7C517.034 1127.7 522.968 1133.64 522.968 1140.81Z" fill="#B5D6D9"/>
<path d="M522.968 1193.37C522.968 1200.69 517.034 1206.48 509.859 1206.48C502.684 1206.48 496.751 1200.55 496.751 1193.37C496.751 1186.2 502.684 1180.27 509.859 1180.27C517.034 1180.27 522.968 1186.2 522.968 1193.37Z" fill="#B5D6D9"/>
<path d="M522.968 1245.94C522.968 1253.25 517.034 1259.04 509.859 1259.04C502.684 1259.04 496.751 1253.11 496.751 1245.94C496.751 1238.76 502.684 1232.83 509.859 1232.83C517.034 1232.83 522.968 1238.76 522.968 1245.94Z" fill="#B5D6D9"/>
<path d="M522.968 1298.5C522.968 1305.81 517.034 1311.61 509.859 1311.61C502.684 1311.61 496.751 1305.67 496.751 1298.5C496.751 1291.33 502.684 1285.39 509.859 1285.39C517.034 1285.39 522.968 1291.33 522.968 1298.5Z" fill="#B5D6D9"/>
<path d="M522.968 1351.2C522.968 1358.51 517.034 1364.31 509.859 1364.31C502.684 1364.31 496.751 1358.38 496.751 1351.2C496.751 1344.03 502.684 1338.1 509.859 1338.1C517.034 1338.1 522.968 1344.03 522.968 1351.2Z" fill="#B5D6D9"/>
<path d="M470.395 36.2842C470.395 43.5962 464.462 49.3906 457.286 49.3906C450.111 49.3906 444.178 43.4582 444.178 36.2842C444.178 29.1101 450.111 23.1777 457.286 23.1777C464.462 23.1777 470.395 29.1101 470.395 36.2842Z" fill="#B5D6D9"/>
<path d="M470.395 88.8476C470.395 96.1596 464.462 101.954 457.286 101.954C450.111 101.954 444.178 96.0217 444.178 88.8476C444.178 81.6736 450.111 75.7412 457.286 75.7412C464.462 75.7412 470.395 81.6736 470.395 88.8476Z" fill="#B5D6D9"/>
<path d="M470.395 141.549C470.395 148.861 464.462 154.655 457.286 154.655C450.111 154.655 444.178 148.723 444.178 141.549C444.178 134.375 450.111 128.443 457.286 128.443C464.462 128.443 470.395 134.375 470.395 141.549Z" fill="#B5D6D9"/>
<path d="M470.395 194.113C470.395 201.425 464.462 207.22 457.286 207.22C450.111 207.22 444.178 201.287 444.178 194.113C444.178 186.939 450.111 181.007 457.286 181.007C464.462 181.007 470.395 186.939 470.395 194.113Z" fill="#B5D6D9"/>
<path d="M470.395 246.676C470.395 253.988 464.462 259.783 457.286 259.783C450.111 259.783 444.178 253.851 444.178 246.676C444.178 239.502 450.111 233.57 457.286 233.57C464.462 233.57 470.395 239.502 470.395 246.676Z" fill="#B5D6D9"/>
<path d="M470.395 299.24C470.395 306.552 464.462 312.347 457.286 312.347C450.111 312.347 444.178 306.414 444.178 299.24C444.178 292.066 450.111 286.134 457.286 286.134C464.462 286.134 470.395 292.066 470.395 299.24Z" fill="#B5D6D9"/>
<path d="M470.395 351.804C470.395 359.116 464.462 364.911 457.286 364.911C450.111 364.911 444.178 358.978 444.178 351.804C444.178 344.63 450.111 338.698 457.286 338.698C464.462 338.698 470.395 344.63 470.395 351.804Z" fill="#B5D6D9"/>
<path d="M470.395 404.505C470.395 411.817 464.462 417.611 457.286 417.611C450.111 417.611 444.178 411.679 444.178 404.505C444.178 397.331 450.111 391.398 457.286 391.398C464.462 391.398 470.395 397.331 470.395 404.505Z" fill="#B5D6D9"/>
<path d="M470.395 457.069C470.395 464.381 464.462 470.175 457.286 470.175C450.111 470.175 444.178 464.243 444.178 457.069C444.178 449.895 450.111 443.962 457.286 443.962C464.462 443.962 470.395 449.895 470.395 457.069Z" fill="#B5D6D9"/>
<path d="M470.395 509.633C470.395 516.945 464.462 522.739 457.286 522.739C450.111 522.739 444.178 516.807 444.178 509.633C444.178 502.459 450.111 496.526 457.286 496.526C464.462 496.526 470.395 502.459 470.395 509.633Z" fill="#B5D6D9"/>
<path d="M470.395 562.196C470.395 569.508 464.462 575.303 457.286 575.303C450.111 575.303 444.178 569.37 444.178 562.196C444.178 555.022 450.111 549.09 457.286 549.09C464.462 549.09 470.395 555.022 470.395 562.196Z" fill="#B5D6D9"/>
<path d="M470.395 614.897C470.395 622.209 464.462 628.004 457.286 628.004C450.111 628.004 444.178 622.071 444.178 614.897C444.178 607.723 450.111 601.791 457.286 601.791C464.462 601.791 470.395 607.723 470.395 614.897Z" fill="#B5D6D9"/>
<path d="M470.395 667.461C470.395 674.773 464.462 680.568 457.286 680.568C450.111 680.568 444.178 674.635 444.178 667.461C444.178 660.287 450.111 654.355 457.286 654.355C464.462 654.355 470.395 660.287 470.395 667.461Z" fill="#B5D6D9"/>
<path d="M470.395 720.025C470.395 727.337 464.462 733.131 457.286 733.131C450.111 733.131 444.178 727.199 444.178 720.025C444.178 712.851 450.111 706.918 457.286 706.918C464.462 706.918 470.395 712.851 470.395 720.025Z" fill="#B5D6D9"/>
<path d="M470.395 772.588C470.395 779.9 464.462 785.695 457.286 785.695C450.111 785.695 444.178 779.762 444.178 772.588C444.178 765.414 450.111 759.482 457.286 759.482C464.462 759.482 470.395 765.414 470.395 772.588Z" fill="#B5D6D9"/>
<path d="M470.395 825.152C470.395 832.464 464.462 838.258 457.286 838.258C450.111 838.258 444.178 832.326 444.178 825.152C444.178 817.978 450.111 812.046 457.286 812.046C464.462 812.046 470.395 817.978 470.395 825.152Z" fill="#B5D6D9"/>
<path d="M470.395 877.853C470.395 885.165 464.462 890.96 457.286 890.96C450.111 890.96 444.178 885.027 444.178 877.853C444.178 870.679 450.111 864.747 457.286 864.747C464.462 864.747 470.395 870.679 470.395 877.853Z" fill="#B5D6D9"/>
<path d="M470.395 930.418C470.395 937.73 464.462 943.524 457.286 943.524C450.111 943.524 444.178 937.592 444.178 930.418C444.178 923.244 450.111 917.311 457.286 917.311C464.462 917.311 470.395 923.244 470.395 930.418Z" fill="#B5D6D9"/>
<path d="M470.395 982.981C470.395 990.293 464.462 996.088 457.286 996.088C450.111 996.088 444.178 990.155 444.178 982.981C444.178 975.807 450.111 969.875 457.286 969.875C464.462 969.875 470.395 975.807 470.395 982.981Z" fill="#B5D6D9"/>
<path d="M470.395 1035.54C470.395 1042.86 464.462 1048.65 457.286 1048.65C450.111 1048.65 444.178 1042.72 444.178 1035.54C444.178 1028.37 450.111 1022.44 457.286 1022.44C464.462 1022.44 470.395 1028.37 470.395 1035.54Z" fill="#B5D6D9"/>
<path d="M470.395 1088.11C470.395 1095.42 464.462 1101.21 457.286 1101.21C450.111 1101.21 444.178 1095.28 444.178 1088.11C444.178 1080.93 450.111 1075 457.286 1075C464.462 1075 470.395 1080.93 470.395 1088.11Z" fill="#B5D6D9"/>
<path d="M470.395 1140.81C470.395 1148.12 464.462 1153.92 457.286 1153.92C450.111 1153.92 444.178 1147.98 444.178 1140.81C444.178 1133.64 450.111 1127.7 457.286 1127.7C464.462 1127.7 470.395 1133.64 470.395 1140.81Z" fill="#B5D6D9"/>
<path d="M470.395 1193.37C470.395 1200.69 464.462 1206.48 457.286 1206.48C450.111 1206.48 444.178 1200.55 444.178 1193.37C444.178 1186.2 450.111 1180.27 457.286 1180.27C464.462 1180.27 470.395 1186.2 470.395 1193.37Z" fill="#B5D6D9"/>
<path d="M470.395 1245.94C470.395 1253.25 464.462 1259.04 457.286 1259.04C450.111 1259.04 444.178 1253.11 444.178 1245.94C444.178 1238.76 450.111 1232.83 457.286 1232.83C464.462 1232.83 470.395 1238.76 470.395 1245.94Z" fill="#B5D6D9"/>
<path d="M470.395 1298.5C470.395 1305.81 464.462 1311.61 457.286 1311.61C450.111 1311.61 444.178 1305.67 444.178 1298.5C444.178 1291.33 450.111 1285.39 457.286 1285.39C464.462 1285.39 470.395 1291.33 470.395 1298.5Z" fill="#B5D6D9"/>
<path d="M470.395 1351.2C470.395 1358.51 464.462 1364.31 457.286 1364.31C450.111 1364.31 444.178 1358.38 444.178 1351.2C444.178 1344.03 450.111 1338.1 457.286 1338.1C464.462 1338.1 470.395 1344.03 470.395 1351.2Z" fill="#B5D6D9"/>
<path d="M417.683 36.2842C417.683 43.5962 411.749 49.3906 404.574 49.3906C397.399 49.3906 391.465 43.4582 391.465 36.2842C391.465 29.1101 397.399 23.1777 404.574 23.1777C411.749 23.1777 417.683 29.1101 417.683 36.2842Z" fill="#B5D6D9"/>
<path d="M417.683 88.8476C417.683 96.1596 411.749 101.954 404.574 101.954C397.399 101.954 391.465 96.0217 391.465 88.8476C391.465 81.6736 397.399 75.7412 404.574 75.7412C411.749 75.7412 417.683 81.6736 417.683 88.8476Z" fill="#B5D6D9"/>
<path d="M417.683 141.549C417.683 148.861 411.749 154.655 404.574 154.655C397.399 154.655 391.465 148.723 391.465 141.549C391.465 134.375 397.399 128.443 404.574 128.443C411.749 128.443 417.683 134.375 417.683 141.549Z" fill="#B5D6D9"/>
<path d="M417.683 194.113C417.683 201.425 411.749 207.22 404.574 207.22C397.399 207.22 391.465 201.287 391.465 194.113C391.465 186.939 397.399 181.007 404.574 181.007C411.749 181.007 417.683 186.939 417.683 194.113Z" fill="#B5D6D9"/>
<path d="M417.683 246.676C417.683 253.988 411.749 259.783 404.574 259.783C397.399 259.783 391.465 253.851 391.465 246.676C391.465 239.502 397.399 233.57 404.574 233.57C411.749 233.57 417.683 239.502 417.683 246.676Z" fill="#B5D6D9"/>
<path d="M417.683 299.24C417.683 306.552 411.749 312.347 404.574 312.347C397.399 312.347 391.465 306.414 391.465 299.24C391.465 292.066 397.399 286.134 404.574 286.134C411.749 286.134 417.683 292.066 417.683 299.24Z" fill="#B5D6D9"/>
<path d="M417.683 351.804C417.683 359.116 411.749 364.911 404.574 364.911C397.399 364.911 391.465 358.978 391.465 351.804C391.465 344.63 397.399 338.698 404.574 338.698C411.749 338.698 417.683 344.63 417.683 351.804Z" fill="#B5D6D9"/>
<path d="M417.683 404.505C417.683 411.817 411.749 417.611 404.574 417.611C397.399 417.611 391.465 411.679 391.465 404.505C391.465 397.331 397.399 391.398 404.574 391.398C411.749 391.398 417.683 397.331 417.683 404.505Z" fill="#B5D6D9"/>
<path d="M417.683 457.069C417.683 464.381 411.749 470.175 404.574 470.175C397.399 470.175 391.465 464.243 391.465 457.069C391.465 449.895 397.399 443.962 404.574 443.962C411.749 443.962 417.683 449.895 417.683 457.069Z" fill="#B5D6D9"/>
<path d="M417.683 509.633C417.683 516.945 411.749 522.739 404.574 522.739C397.399 522.739 391.465 516.807 391.465 509.633C391.465 502.459 397.399 496.526 404.574 496.526C411.749 496.526 417.683 502.459 417.683 509.633Z" fill="#B5D6D9"/>
<path d="M417.683 562.196C417.683 569.508 411.749 575.303 404.574 575.303C397.399 575.303 391.465 569.37 391.465 562.196C391.465 555.022 397.399 549.09 404.574 549.09C411.749 549.09 417.683 555.022 417.683 562.196Z" fill="#B5D6D9"/>
<path d="M417.683 614.897C417.683 622.209 411.749 628.004 404.574 628.004C397.399 628.004 391.465 622.071 391.465 614.897C391.465 607.723 397.399 601.791 404.574 601.791C411.749 601.791 417.683 607.723 417.683 614.897Z" fill="#B5D6D9"/>
<path d="M417.683 667.461C417.683 674.773 411.749 680.568 404.574 680.568C397.399 680.568 391.465 674.635 391.465 667.461C391.465 660.287 397.399 654.355 404.574 654.355C411.749 654.355 417.683 660.287 417.683 667.461Z" fill="#B5D6D9"/>
<path d="M417.683 720.025C417.683 727.337 411.749 733.131 404.574 733.131C397.399 733.131 391.465 727.199 391.465 720.025C391.465 712.851 397.399 706.918 404.574 706.918C411.749 706.918 417.683 712.851 417.683 720.025Z" fill="#B5D6D9"/>
<path d="M417.683 772.588C417.683 779.9 411.749 785.695 404.574 785.695C397.399 785.695 391.465 779.762 391.465 772.588C391.465 765.414 397.399 759.482 404.574 759.482C411.749 759.482 417.683 765.414 417.683 772.588Z" fill="#B5D6D9"/>
<path d="M417.683 825.152C417.683 832.464 411.749 838.258 404.574 838.258C397.399 838.258 391.465 832.326 391.465 825.152C391.465 817.978 397.399 812.046 404.574 812.046C411.749 812.046 417.683 817.978 417.683 825.152Z" fill="#B5D6D9"/>
<path d="M417.683 877.853C417.683 885.165 411.749 890.96 404.574 890.96C397.399 890.96 391.465 885.027 391.465 877.853C391.465 870.679 397.399 864.747 404.574 864.747C411.749 864.747 417.683 870.679 417.683 877.853Z" fill="#B5D6D9"/>
<path d="M417.683 930.418C417.683 937.73 411.749 943.524 404.574 943.524C397.399 943.524 391.465 937.592 391.465 930.418C391.465 923.244 397.399 917.311 404.574 917.311C411.749 917.311 417.683 923.244 417.683 930.418Z" fill="#B5D6D9"/>
<path d="M417.683 982.981C417.683 990.293 411.749 996.088 404.574 996.088C397.399 996.088 391.465 990.155 391.465 982.981C391.465 975.807 397.399 969.875 404.574 969.875C411.749 969.875 417.683 975.807 417.683 982.981Z" fill="#B5D6D9"/>
<path d="M417.683 1035.54C417.683 1042.86 411.749 1048.65 404.574 1048.65C397.399 1048.65 391.465 1042.72 391.465 1035.54C391.465 1028.37 397.399 1022.44 404.574 1022.44C411.749 1022.44 417.683 1028.37 417.683 1035.54Z" fill="#B5D6D9"/>
<path d="M417.683 1088.11C417.683 1095.42 411.749 1101.21 404.574 1101.21C397.399 1101.21 391.465 1095.28 391.465 1088.11C391.465 1080.93 397.399 1075 404.574 1075C411.749 1075 417.683 1080.93 417.683 1088.11Z" fill="#B5D6D9"/>
<path d="M417.683 1140.81C417.683 1148.12 411.749 1153.92 404.574 1153.92C397.399 1153.92 391.465 1147.98 391.465 1140.81C391.465 1133.64 397.399 1127.7 404.574 1127.7C411.749 1127.7 417.683 1133.64 417.683 1140.81Z" fill="#B5D6D9"/>
<path d="M417.683 1193.37C417.683 1200.69 411.749 1206.48 404.574 1206.48C397.399 1206.48 391.465 1200.55 391.465 1193.37C391.465 1186.2 397.399 1180.27 404.574 1180.27C411.749 1180.27 417.683 1186.2 417.683 1193.37Z" fill="#B5D6D9"/>
<path d="M417.683 1245.94C417.683 1253.25 411.749 1259.04 404.574 1259.04C397.399 1259.04 391.465 1253.11 391.465 1245.94C391.465 1238.76 397.399 1232.83 404.574 1232.83C411.749 1232.83 417.683 1238.76 417.683 1245.94Z" fill="#B5D6D9"/>
<path d="M417.683 1298.5C417.683 1305.81 411.749 1311.61 404.574 1311.61C397.399 1311.61 391.465 1305.67 391.465 1298.5C391.465 1291.33 397.399 1285.39 404.574 1285.39C411.749 1285.39 417.683 1291.33 417.683 1298.5Z" fill="#B5D6D9"/>
<path d="M417.683 1351.2C417.683 1358.51 411.749 1364.31 404.574 1364.31C397.399 1364.31 391.465 1358.38 391.465 1351.2C391.465 1344.03 397.399 1338.1 404.574 1338.1C411.749 1338.1 417.683 1344.03 417.683 1351.2Z" fill="#B5D6D9"/>
<path d="M365.111 36.2842C365.111 43.5962 359.178 49.3906 352.003 49.3906C344.828 49.3906 338.894 43.4582 338.894 36.2842C338.894 29.1101 344.828 23.1777 352.003 23.1777C359.178 23.1777 365.111 29.1101 365.111 36.2842Z" fill="#B5D6D9"/>
<path d="M365.111 88.8476C365.111 96.1596 359.178 101.954 352.003 101.954C344.828 101.954 338.894 96.0217 338.894 88.8476C338.894 81.6736 344.828 75.7412 352.003 75.7412C359.178 75.7412 365.111 81.6736 365.111 88.8476Z" fill="#B5D6D9"/>
<path d="M365.111 141.549C365.111 148.861 359.178 154.655 352.003 154.655C344.828 154.655 338.894 148.723 338.894 141.549C338.894 134.375 344.828 128.443 352.003 128.443C359.178 128.443 365.111 134.375 365.111 141.549Z" fill="#B5D6D9"/>
<path d="M365.111 194.113C365.111 201.425 359.178 207.22 352.003 207.22C344.828 207.22 338.894 201.287 338.894 194.113C338.894 186.939 344.828 181.007 352.003 181.007C359.178 181.007 365.111 186.939 365.111 194.113Z" fill="#B5D6D9"/>
<path d="M365.111 246.676C365.111 253.988 359.178 259.783 352.003 259.783C344.828 259.783 338.894 253.851 338.894 246.676C338.894 239.502 344.828 233.57 352.003 233.57C359.178 233.57 365.111 239.502 365.111 246.676Z" fill="#B5D6D9"/>
<path d="M365.111 299.24C365.111 306.552 359.178 312.347 352.003 312.347C344.828 312.347 338.894 306.414 338.894 299.24C338.894 292.066 344.828 286.134 352.003 286.134C359.178 286.134 365.111 292.066 365.111 299.24Z" fill="#B5D6D9"/>
<path d="M365.111 351.804C365.111 359.116 359.178 364.911 352.003 364.911C344.828 364.911 338.894 358.978 338.894 351.804C338.894 344.63 344.828 338.698 352.003 338.698C359.178 338.698 365.111 344.63 365.111 351.804Z" fill="#B5D6D9"/>
<path d="M365.111 404.505C365.111 411.817 359.178 417.611 352.003 417.611C344.828 417.611 338.894 411.679 338.894 404.505C338.894 397.331 344.828 391.398 352.003 391.398C359.178 391.398 365.111 397.331 365.111 404.505Z" fill="#B5D6D9"/>
<path d="M365.111 457.069C365.111 464.381 359.178 470.175 352.003 470.175C344.828 470.175 338.894 464.243 338.894 457.069C338.894 449.895 344.828 443.962 352.003 443.962C359.178 443.962 365.111 449.895 365.111 457.069Z" fill="#B5D6D9"/>
<path d="M365.111 509.633C365.111 516.945 359.178 522.739 352.003 522.739C344.828 522.739 338.894 516.807 338.894 509.633C338.894 502.459 344.828 496.526 352.003 496.526C359.178 496.526 365.111 502.459 365.111 509.633Z" fill="#B5D6D9"/>
<path d="M365.111 562.196C365.111 569.508 359.178 575.303 352.003 575.303C344.828 575.303 338.894 569.37 338.894 562.196C338.894 555.022 344.828 549.09 352.003 549.09C359.178 549.09 365.111 555.022 365.111 562.196Z" fill="#B5D6D9"/>
<path d="M365.111 614.897C365.111 622.209 359.178 628.004 352.003 628.004C344.828 628.004 338.894 622.071 338.894 614.897C338.894 607.723 344.828 601.791 352.003 601.791C359.178 601.791 365.111 607.723 365.111 614.897Z" fill="#B5D6D9"/>
<path d="M365.111 667.461C365.111 674.773 359.178 680.568 352.003 680.568C344.828 680.568 338.894 674.635 338.894 667.461C338.894 660.287 344.828 654.355 352.003 654.355C359.178 654.355 365.111 660.287 365.111 667.461Z" fill="#B5D6D9"/>
<path d="M365.111 720.025C365.111 727.337 359.178 733.131 352.003 733.131C344.828 733.131 338.894 727.199 338.894 720.025C338.894 712.851 344.828 706.918 352.003 706.918C359.178 706.918 365.111 712.851 365.111 720.025Z" fill="#B5D6D9"/>
<path d="M365.111 772.588C365.111 779.9 359.178 785.695 352.003 785.695C344.828 785.695 338.894 779.762 338.894 772.588C338.894 765.414 344.828 759.482 352.003 759.482C359.178 759.482 365.111 765.414 365.111 772.588Z" fill="#B5D6D9"/>
<path d="M365.111 825.152C365.111 832.464 359.178 838.258 352.003 838.258C344.828 838.258 338.894 832.326 338.894 825.152C338.894 817.978 344.828 812.046 352.003 812.046C359.178 812.046 365.111 817.978 365.111 825.152Z" fill="#B5D6D9"/>
<path d="M365.111 877.853C365.111 885.165 359.178 890.96 352.003 890.96C344.828 890.96 338.894 885.027 338.894 877.853C338.894 870.679 344.828 864.747 352.003 864.747C359.178 864.747 365.111 870.679 365.111 877.853Z" fill="#B5D6D9"/>
<path d="M365.111 930.418C365.111 937.73 359.178 943.524 352.003 943.524C344.828 943.524 338.894 937.592 338.894 930.418C338.894 923.244 344.828 917.311 352.003 917.311C359.178 917.311 365.111 923.244 365.111 930.418Z" fill="#B5D6D9"/>
<path d="M365.111 982.981C365.111 990.293 359.178 996.088 352.003 996.088C344.828 996.088 338.894 990.155 338.894 982.981C338.894 975.807 344.828 969.875 352.003 969.875C359.178 969.875 365.111 975.807 365.111 982.981Z" fill="#B5D6D9"/>
<path d="M365.111 1035.54C365.111 1042.86 359.178 1048.65 352.003 1048.65C344.828 1048.65 338.894 1042.72 338.894 1035.54C338.894 1028.37 344.828 1022.44 352.003 1022.44C359.178 1022.44 365.111 1028.37 365.111 1035.54Z" fill="#B5D6D9"/>
<path d="M365.111 1088.11C365.111 1095.42 359.178 1101.21 352.003 1101.21C344.828 1101.21 338.894 1095.28 338.894 1088.11C338.894 1080.93 344.828 1075 352.003 1075C359.178 1075 365.111 1080.93 365.111 1088.11Z" fill="#B5D6D9"/>
<path d="M365.111 1140.81C365.111 1148.12 359.178 1153.92 352.003 1153.92C344.828 1153.92 338.894 1147.98 338.894 1140.81C338.894 1133.64 344.828 1127.7 352.003 1127.7C359.178 1127.7 365.111 1133.64 365.111 1140.81Z" fill="#B5D6D9"/>
<path d="M365.111 1193.37C365.111 1200.69 359.178 1206.48 352.003 1206.48C344.828 1206.48 338.894 1200.55 338.894 1193.37C338.894 1186.2 344.828 1180.27 352.003 1180.27C359.178 1180.27 365.111 1186.2 365.111 1193.37Z" fill="#B5D6D9"/>
<path d="M365.111 1245.94C365.111 1253.25 359.178 1259.04 352.003 1259.04C344.828 1259.04 338.894 1253.11 338.894 1245.94C338.894 1238.76 344.828 1232.83 352.003 1232.83C359.178 1232.83 365.111 1238.76 365.111 1245.94Z" fill="#B5D6D9"/>
<path d="M365.111 1298.5C365.111 1305.81 359.178 1311.61 352.003 1311.61C344.828 1311.61 338.894 1305.67 338.894 1298.5C338.894 1291.33 344.828 1285.39 352.003 1285.39C359.178 1285.39 365.111 1291.33 365.111 1298.5Z" fill="#B5D6D9"/>
<path d="M365.111 1351.2C365.111 1358.51 359.178 1364.31 352.003 1364.31C344.828 1364.31 338.894 1358.38 338.894 1351.2C338.894 1344.03 344.828 1338.1 352.003 1338.1C359.178 1338.1 365.111 1344.03 365.111 1351.2Z" fill="#B5D6D9"/>
<path d="M312.539 36.2842C312.539 43.5962 306.606 49.3906 299.43 49.3906C292.255 49.3906 286.322 43.4582 286.322 36.2842C286.322 29.1101 292.255 23.1777 299.43 23.1777C306.606 23.1777 312.539 29.1101 312.539 36.2842Z" fill="#B5D6D9"/>
<path d="M312.539 88.8476C312.539 96.1596 306.606 101.954 299.43 101.954C292.255 101.954 286.322 96.0217 286.322 88.8476C286.322 81.6736 292.255 75.7412 299.43 75.7412C306.606 75.7412 312.539 81.6736 312.539 88.8476Z" fill="#B5D6D9"/>
<path d="M312.539 141.549C312.539 148.861 306.606 154.655 299.43 154.655C292.255 154.655 286.322 148.723 286.322 141.549C286.322 134.375 292.255 128.443 299.43 128.443C306.606 128.443 312.539 134.375 312.539 141.549Z" fill="#B5D6D9"/>
<path d="M312.539 194.113C312.539 201.425 306.606 207.22 299.43 207.22C292.255 207.22 286.322 201.287 286.322 194.113C286.322 186.939 292.255 181.007 299.43 181.007C306.606 181.007 312.539 186.939 312.539 194.113Z" fill="#B5D6D9"/>
<path d="M312.539 246.676C312.539 253.988 306.606 259.783 299.43 259.783C292.255 259.783 286.322 253.851 286.322 246.676C286.322 239.502 292.255 233.57 299.43 233.57C306.606 233.57 312.539 239.502 312.539 246.676Z" fill="#B5D6D9"/>
<path d="M312.539 299.24C312.539 306.552 306.606 312.347 299.43 312.347C292.255 312.347 286.322 306.414 286.322 299.24C286.322 292.066 292.255 286.134 299.43 286.134C306.606 286.134 312.539 292.066 312.539 299.24Z" fill="#B5D6D9"/>
<path d="M312.539 351.804C312.539 359.116 306.606 364.911 299.43 364.911C292.255 364.911 286.322 358.978 286.322 351.804C286.322 344.63 292.255 338.698 299.43 338.698C306.606 338.698 312.539 344.63 312.539 351.804Z" fill="#B5D6D9"/>
<path d="M312.539 404.505C312.539 411.817 306.606 417.611 299.43 417.611C292.255 417.611 286.322 411.679 286.322 404.505C286.322 397.331 292.255 391.398 299.43 391.398C306.606 391.398 312.539 397.331 312.539 404.505Z" fill="#B5D6D9"/>
<path d="M312.539 457.069C312.539 464.381 306.606 470.175 299.43 470.175C292.255 470.175 286.322 464.243 286.322 457.069C286.322 449.895 292.255 443.962 299.43 443.962C306.606 443.962 312.539 449.895 312.539 457.069Z" fill="#B5D6D9"/>
<path d="M312.539 509.633C312.539 516.945 306.606 522.739 299.43 522.739C292.255 522.739 286.322 516.807 286.322 509.633C286.322 502.459 292.255 496.526 299.43 496.526C306.606 496.526 312.539 502.459 312.539 509.633Z" fill="#B5D6D9"/>
<path d="M312.539 562.196C312.539 569.508 306.606 575.303 299.43 575.303C292.255 575.303 286.322 569.37 286.322 562.196C286.322 555.022 292.255 549.09 299.43 549.09C306.606 549.09 312.539 555.022 312.539 562.196Z" fill="#B5D6D9"/>
<path d="M312.539 614.897C312.539 622.209 306.606 628.004 299.43 628.004C292.255 628.004 286.322 622.071 286.322 614.897C286.322 607.723 292.255 601.791 299.43 601.791C306.606 601.791 312.539 607.723 312.539 614.897Z" fill="#B5D6D9"/>
<path d="M312.539 667.461C312.539 674.773 306.606 680.568 299.43 680.568C292.255 680.568 286.322 674.635 286.322 667.461C286.322 660.287 292.255 654.355 299.43 654.355C306.606 654.355 312.539 660.287 312.539 667.461Z" fill="#B5D6D9"/>
<path d="M312.539 720.025C312.539 727.337 306.606 733.131 299.43 733.131C292.255 733.131 286.322 727.199 286.322 720.025C286.322 712.851 292.255 706.918 299.43 706.918C306.606 706.918 312.539 712.851 312.539 720.025Z" fill="#B5D6D9"/>
<path d="M312.539 772.588C312.539 779.9 306.606 785.695 299.43 785.695C292.255 785.695 286.322 779.762 286.322 772.588C286.322 765.414 292.255 759.482 299.43 759.482C306.606 759.482 312.539 765.414 312.539 772.588Z" fill="#B5D6D9"/>
<path d="M312.539 825.152C312.539 832.464 306.606 838.258 299.43 838.258C292.255 838.258 286.322 832.326 286.322 825.152C286.322 817.978 292.255 812.046 299.43 812.046C306.606 812.046 312.539 817.978 312.539 825.152Z" fill="#B5D6D9"/>
<path d="M312.539 877.853C312.539 885.165 306.606 890.96 299.43 890.96C292.255 890.96 286.322 885.027 286.322 877.853C286.322 870.679 292.255 864.747 299.43 864.747C306.606 864.747 312.539 870.679 312.539 877.853Z" fill="#B5D6D9"/>
<path d="M312.539 930.418C312.539 937.73 306.606 943.524 299.43 943.524C292.255 943.524 286.322 937.592 286.322 930.418C286.322 923.244 292.255 917.311 299.43 917.311C306.606 917.311 312.539 923.244 312.539 930.418Z" fill="#B5D6D9"/>
<path d="M312.539 982.981C312.539 990.293 306.606 996.088 299.43 996.088C292.255 996.088 286.322 990.155 286.322 982.981C286.322 975.807 292.255 969.875 299.43 969.875C306.606 969.875 312.539 975.807 312.539 982.981Z" fill="#B5D6D9"/>
<path d="M312.539 1035.54C312.539 1042.86 306.606 1048.65 299.43 1048.65C292.255 1048.65 286.322 1042.72 286.322 1035.54C286.322 1028.37 292.255 1022.44 299.43 1022.44C306.606 1022.44 312.539 1028.37 312.539 1035.54Z" fill="#B5D6D9"/>
<path d="M312.539 1088.11C312.539 1095.42 306.606 1101.21 299.43 1101.21C292.255 1101.21 286.322 1095.28 286.322 1088.11C286.322 1080.93 292.255 1075 299.43 1075C306.606 1075 312.539 1080.93 312.539 1088.11Z" fill="#B5D6D9"/>
<path d="M312.539 1140.81C312.539 1148.12 306.606 1153.92 299.43 1153.92C292.255 1153.92 286.322 1147.98 286.322 1140.81C286.322 1133.64 292.255 1127.7 299.43 1127.7C306.606 1127.7 312.539 1133.64 312.539 1140.81Z" fill="#B5D6D9"/>
<path d="M312.539 1193.37C312.539 1200.69 306.606 1206.48 299.43 1206.48C292.255 1206.48 286.322 1200.55 286.322 1193.37C286.322 1186.2 292.255 1180.27 299.43 1180.27C306.606 1180.27 312.539 1186.2 312.539 1193.37Z" fill="#B5D6D9"/>
<path d="M312.539 1245.94C312.539 1253.25 306.606 1259.04 299.43 1259.04C292.255 1259.04 286.322 1253.11 286.322 1245.94C286.322 1238.76 292.255 1232.83 299.43 1232.83C306.606 1232.83 312.539 1238.76 312.539 1245.94Z" fill="#B5D6D9"/>
<path d="M312.539 1298.5C312.539 1305.81 306.606 1311.61 299.43 1311.61C292.255 1311.61 286.322 1305.67 286.322 1298.5C286.322 1291.33 292.255 1285.39 299.43 1285.39C306.606 1285.39 312.539 1291.33 312.539 1298.5Z" fill="#B5D6D9"/>
<path d="M312.539 1351.2C312.539 1358.51 306.606 1364.31 299.43 1364.31C292.255 1364.31 286.322 1358.38 286.322 1351.2C286.322 1344.03 292.255 1338.1 299.43 1338.1C306.606 1338.1 312.539 1344.03 312.539 1351.2Z" fill="#B5D6D9"/>
<path d="M246.72 49.3906C239.48 49.3906 233.611 43.5226 233.611 36.2842C233.611 29.0457 239.48 23.1777 246.72 23.1777C253.959 23.1777 259.828 29.0457 259.828 36.2842C259.828 43.5226 253.959 49.3906 246.72 49.3906Z" fill="#B5D6D9"/>
<path d="M259.967 88.8476C259.967 96.1596 254.034 101.954 246.859 101.954C239.683 101.954 233.75 96.0217 233.75 88.8476C233.75 81.6736 239.683 75.7412 246.859 75.7412C254.034 75.7412 259.967 81.6736 259.967 88.8476Z" fill="#B5D6D9"/>
<path d="M259.967 141.549C259.967 148.861 254.034 154.655 246.859 154.655C239.683 154.655 233.75 148.723 233.75 141.549C233.75 134.375 239.683 128.443 246.859 128.443C254.034 128.443 259.967 134.375 259.967 141.549Z" fill="#B5D6D9"/>
<path d="M259.967 194.113C259.967 201.425 254.034 207.22 246.859 207.22C239.683 207.22 233.75 201.287 233.75 194.113C233.75 186.939 239.683 181.007 246.859 181.007C254.034 181.007 259.967 186.939 259.967 194.113Z" fill="#B5D6D9"/>
<path d="M259.967 246.676C259.967 253.988 254.034 259.783 246.859 259.783C239.683 259.783 233.75 253.851 233.75 246.676C233.75 239.502 239.683 233.57 246.859 233.57C254.034 233.57 259.967 239.502 259.967 246.676Z" fill="#B5D6D9"/>
<path d="M259.967 299.24C259.967 306.552 254.034 312.347 246.859 312.347C239.683 312.347 233.75 306.414 233.75 299.24C233.75 292.066 239.683 286.134 246.859 286.134C254.034 286.134 259.967 292.066 259.967 299.24Z" fill="#B5D6D9"/>
<path d="M246.72 364.911C239.48 364.911 233.611 359.043 233.611 351.804C233.611 344.566 239.48 338.698 246.72 338.698C253.959 338.698 259.828 344.566 259.828 351.804C259.828 359.043 253.959 364.911 246.72 364.911Z" fill="#B5D6D9"/>
<path d="M246.72 417.611C239.48 417.611 233.611 411.743 233.611 404.505C233.611 397.266 239.48 391.398 246.72 391.398C253.959 391.398 259.828 397.266 259.828 404.505C259.828 411.743 253.959 417.611 246.72 417.611Z" fill="#B5D6D9"/>
<path d="M246.72 470.175C239.48 470.175 233.611 464.307 233.611 457.069C233.611 449.83 239.48 443.962 246.72 443.962C253.959 443.962 259.828 449.83 259.828 457.069C259.828 464.307 253.959 470.175 246.72 470.175Z" fill="#B5D6D9"/>
<path d="M259.967 509.633C259.967 516.945 254.034 522.739 246.859 522.739C239.683 522.739 233.75 516.807 233.75 509.633C233.75 502.459 239.683 496.526 246.859 496.526C254.034 496.526 259.967 502.459 259.967 509.633Z" fill="#B5D6D9"/>
<path d="M246.72 575.303C239.48 575.303 233.611 569.435 233.611 562.196C233.611 554.958 239.48 549.09 246.72 549.09C253.959 549.09 259.828 554.958 259.828 562.196C259.828 569.435 253.959 575.303 246.72 575.303Z" fill="#B5D6D9"/>
<path d="M259.967 614.897C259.967 622.209 254.034 628.004 246.859 628.004C239.683 628.004 233.75 622.071 233.75 614.897C233.75 607.723 239.683 601.791 246.859 601.791C254.034 601.791 259.967 607.723 259.967 614.897Z" fill="#B5D6D9"/>
<path d="M259.967 667.461C259.967 674.773 254.034 680.568 246.859 680.568C239.683 680.568 233.75 674.635 233.75 667.461C233.75 660.287 239.683 654.355 246.859 654.355C254.034 654.355 259.967 660.287 259.967 667.461Z" fill="#B5D6D9"/>
<path d="M259.967 720.025C259.967 727.337 254.034 733.131 246.859 733.131C239.683 733.131 233.75 727.199 233.75 720.025C233.75 712.851 239.683 706.918 246.859 706.918C254.034 706.918 259.967 712.851 259.967 720.025Z" fill="#B5D6D9"/>
<path d="M259.967 772.588C259.967 779.9 254.034 785.695 246.859 785.695C239.683 785.695 233.75 779.762 233.75 772.588C233.75 765.414 239.683 759.482 246.859 759.482C254.034 759.482 259.967 765.414 259.967 772.588Z" fill="#B5D6D9"/>
<path d="M259.967 825.152C259.967 832.464 254.034 838.258 246.859 838.258C239.683 838.258 233.75 832.326 233.75 825.152C233.75 817.978 239.683 812.046 246.859 812.046C254.034 812.046 259.967 817.978 259.967 825.152Z" fill="#B5D6D9"/>
<path d="M259.967 877.853C259.967 885.165 254.034 890.96 246.859 890.96C239.683 890.96 233.75 885.027 233.75 877.853C233.75 870.679 239.683 864.747 246.859 864.747C254.034 864.747 259.967 870.679 259.967 877.853Z" fill="#B5D6D9"/>
<path d="M246.72 943.524C239.48 943.524 233.611 937.656 233.611 930.418C233.611 923.179 239.48 917.311 246.72 917.311C253.959 917.311 259.828 923.179 259.828 930.418C259.828 937.656 253.959 943.524 246.72 943.524Z" fill="#B5D6D9"/>
<path d="M259.967 982.981C259.967 990.293 254.034 996.088 246.859 996.088C239.683 996.088 233.75 990.155 233.75 982.981C233.75 975.807 239.683 969.875 246.859 969.875C254.034 969.875 259.967 975.807 259.967 982.981Z" fill="#B5D6D9"/>
<path d="M259.967 1035.54C259.967 1042.86 254.034 1048.65 246.859 1048.65C239.683 1048.65 233.75 1042.72 233.75 1035.54C233.75 1028.37 239.683 1022.44 246.859 1022.44C254.034 1022.44 259.967 1028.37 259.967 1035.54Z" fill="#B5D6D9"/>
<path d="M259.967 1088.11C259.967 1095.42 254.034 1101.21 246.859 1101.21C239.683 1101.21 233.75 1095.28 233.75 1088.11C233.75 1080.93 239.683 1075 246.859 1075C254.034 1075 259.967 1080.93 259.967 1088.11Z" fill="#B5D6D9"/>
<path d="M259.967 1140.81C259.967 1148.12 254.034 1153.92 246.859 1153.92C239.683 1153.92 233.75 1147.98 233.75 1140.81C233.75 1133.64 239.683 1127.7 246.859 1127.7C254.034 1127.7 259.967 1133.64 259.967 1140.81Z" fill="#B5D6D9"/>
<path d="M259.967 1193.37C259.967 1200.69 254.034 1206.48 246.859 1206.48C239.683 1206.48 233.75 1200.55 233.75 1193.37C233.75 1186.2 239.683 1180.27 246.859 1180.27C254.034 1180.27 259.967 1186.2 259.967 1193.37Z" fill="#B5D6D9"/>
<path d="M259.967 1245.94C259.967 1253.25 254.034 1259.04 246.859 1259.04C239.683 1259.04 233.75 1253.11 233.75 1245.94C233.75 1238.76 239.683 1232.83 246.859 1232.83C254.034 1232.83 259.967 1238.76 259.967 1245.94Z" fill="#B5D6D9"/>
<path d="M246.72 1311.61C239.48 1311.61 233.611 1305.74 233.611 1298.5C233.611 1291.26 239.48 1285.39 246.72 1285.39C253.959 1285.39 259.828 1291.26 259.828 1298.5C259.828 1305.74 253.959 1311.61 246.72 1311.61Z" fill="#B5D6D9"/>
<path d="M259.967 1351.2C259.967 1358.51 254.034 1364.31 246.859 1364.31C239.683 1364.31 233.75 1358.38 233.75 1351.2C233.75 1344.03 239.683 1338.1 246.859 1338.1C254.034 1338.1 259.967 1344.03 259.967 1351.2Z" fill="#B5D6D9"/>
<path d="M194.148 49.3906C186.909 49.3906 181.04 43.5226 181.04 36.2842C181.04 29.0457 186.909 23.1777 194.148 23.1777C201.388 23.1777 207.257 29.0457 207.257 36.2842C207.257 43.5226 201.388 49.3906 194.148 49.3906Z" fill="#B5D6D9"/>
<path d="M207.257 88.8476C207.257 96.1596 201.323 101.954 194.148 101.954C186.973 101.954 181.04 96.0217 181.04 88.8476C181.04 81.6736 186.973 75.7412 194.148 75.7412C201.323 75.7412 207.257 81.6736 207.257 88.8476Z" fill="#B5D6D9"/>
<path d="M207.257 141.549C207.257 148.861 201.323 154.655 194.148 154.655C186.973 154.655 181.04 148.723 181.04 141.549C181.04 134.375 186.973 128.443 194.148 128.443C201.323 128.443 207.257 134.375 207.257 141.549Z" fill="#B5D6D9"/>
<path d="M207.257 194.113C207.257 201.425 201.323 207.22 194.148 207.22C186.973 207.22 181.04 201.287 181.04 194.113C181.04 186.939 186.973 181.007 194.148 181.007C201.323 181.007 207.257 186.939 207.257 194.113Z" fill="#B5D6D9"/>
<path d="M207.257 246.676C207.257 253.988 201.323 259.783 194.148 259.783C186.973 259.783 181.04 253.851 181.04 246.676C181.04 239.502 186.973 233.57 194.148 233.57C201.323 233.57 207.257 239.502 207.257 246.676Z" fill="#B5D6D9"/>
<path d="M207.257 299.24C207.257 306.552 201.323 312.347 194.148 312.347C186.973 312.347 181.04 306.414 181.04 299.24C181.04 292.066 186.973 286.134 194.148 286.134C201.323 286.134 207.257 292.066 207.257 299.24Z" fill="#B5D6D9"/>
<path d="M194.148 364.911C186.909 364.911 181.04 359.043 181.04 351.804C181.04 344.566 186.909 338.698 194.148 338.698C201.388 338.698 207.257 344.566 207.257 351.804C207.257 359.043 201.388 364.911 194.148 364.911Z" fill="#B5D6D9"/>
<path d="M194.148 417.611C186.909 417.611 181.04 411.743 181.04 404.505C181.04 397.266 186.909 391.398 194.148 391.398C201.388 391.398 207.257 397.266 207.257 404.505C207.257 411.743 201.388 417.611 194.148 417.611Z" fill="#B5D6D9"/>
<path d="M194.148 470.175C186.909 470.175 181.04 464.307 181.04 457.069C181.04 449.83 186.909 443.962 194.148 443.962C201.388 443.962 207.257 449.83 207.257 457.069C207.257 464.307 201.388 470.175 194.148 470.175Z" fill="#B5D6D9"/>
<path d="M207.257 509.633C207.257 516.945 201.323 522.739 194.148 522.739C186.973 522.739 181.04 516.807 181.04 509.633C181.04 502.459 186.973 496.526 194.148 496.526C201.323 496.526 207.257 502.459 207.257 509.633Z" fill="#B5D6D9"/>
<path d="M194.148 575.303C186.909 575.303 181.04 569.435 181.04 562.196C181.04 554.958 186.909 549.09 194.148 549.09C201.388 549.09 207.257 554.958 207.257 562.196C207.257 569.435 201.388 575.303 194.148 575.303Z" fill="#B5D6D9"/>
<path d="M207.257 614.897C207.257 622.209 201.323 628.004 194.148 628.004C186.973 628.004 181.04 622.071 181.04 614.897C181.04 607.723 186.973 601.791 194.148 601.791C201.323 601.791 207.257 607.723 207.257 614.897Z" fill="#B5D6D9"/>
<path d="M207.257 667.461C207.257 674.773 201.323 680.568 194.148 680.568C186.973 680.568 181.04 674.635 181.04 667.461C181.04 660.287 186.973 654.355 194.148 654.355C201.323 654.355 207.257 660.287 207.257 667.461Z" fill="#B5D6D9"/>
<path d="M207.257 720.025C207.257 727.337 201.323 733.131 194.148 733.131C186.973 733.131 181.04 727.199 181.04 720.025C181.04 712.851 186.973 706.918 194.148 706.918C201.323 706.918 207.257 712.851 207.257 720.025Z" fill="#B5D6D9"/>
<path d="M207.257 772.588C207.257 779.9 201.323 785.695 194.148 785.695C186.973 785.695 181.04 779.762 181.04 772.588C181.04 765.414 186.973 759.482 194.148 759.482C201.323 759.482 207.257 765.414 207.257 772.588Z" fill="#B5D6D9"/>
<path d="M207.257 825.152C207.257 832.464 201.323 838.258 194.148 838.258C186.973 838.258 181.04 832.326 181.04 825.152C181.04 817.978 186.973 812.046 194.148 812.046C201.323 812.046 207.257 817.978 207.257 825.152Z" fill="#B5D6D9"/>
<path d="M207.257 877.853C207.257 885.165 201.323 890.96 194.148 890.96C186.973 890.96 181.04 885.027 181.04 877.853C181.04 870.679 186.973 864.747 194.148 864.747C201.323 864.747 207.257 870.679 207.257 877.853Z" fill="#B5D6D9"/>
<path d="M194.148 943.524C186.909 943.524 181.04 937.656 181.04 930.418C181.04 923.179 186.909 917.311 194.148 917.311C201.388 917.311 207.257 923.179 207.257 930.418C207.257 937.656 201.388 943.524 194.148 943.524Z" fill="#B5D6D9"/>
<path d="M207.257 982.981C207.257 990.293 201.323 996.088 194.148 996.088C186.973 996.088 181.04 990.155 181.04 982.981C181.04 975.807 186.973 969.875 194.148 969.875C201.323 969.875 207.257 975.807 207.257 982.981Z" fill="#B5D6D9"/>
<path d="M207.257 1035.54C207.257 1042.86 201.323 1048.65 194.148 1048.65C186.973 1048.65 181.04 1042.72 181.04 1035.54C181.04 1028.37 186.973 1022.44 194.148 1022.44C201.323 1022.44 207.257 1028.37 207.257 1035.54Z" fill="#B5D6D9"/>
<path d="M207.257 1088.11C207.257 1095.42 201.323 1101.21 194.148 1101.21C186.973 1101.21 181.04 1095.28 181.04 1088.11C181.04 1080.93 186.973 1075 194.148 1075C201.323 1075 207.257 1080.93 207.257 1088.11Z" fill="#B5D6D9"/>
<path d="M207.257 1140.81C207.257 1148.12 201.323 1153.92 194.148 1153.92C186.973 1153.92 181.04 1147.98 181.04 1140.81C181.04 1133.64 186.973 1127.7 194.148 1127.7C201.323 1127.7 207.257 1133.64 207.257 1140.81Z" fill="#B5D6D9"/>
<path d="M207.257 1193.37C207.257 1200.69 201.323 1206.48 194.148 1206.48C186.973 1206.48 181.04 1200.55 181.04 1193.37C181.04 1186.2 186.973 1180.27 194.148 1180.27C201.323 1180.27 207.257 1186.2 207.257 1193.37Z" fill="#B5D6D9"/>
<path d="M207.257 1245.94C207.257 1253.25 201.323 1259.04 194.148 1259.04C186.973 1259.04 181.04 1253.11 181.04 1245.94C181.04 1238.76 186.973 1232.83 194.148 1232.83C201.323 1232.83 207.257 1238.76 207.257 1245.94Z" fill="#B5D6D9"/>
<path d="M194.148 1311.61C186.909 1311.61 181.04 1305.74 181.04 1298.5C181.04 1291.26 186.909 1285.39 194.148 1285.39C201.388 1285.39 207.257 1291.26 207.257 1298.5C207.257 1305.74 201.388 1311.61 194.148 1311.61Z" fill="#B5D6D9"/>
<path d="M207.257 1351.2C207.257 1358.51 201.323 1364.31 194.148 1364.31C186.973 1364.31 181.04 1358.38 181.04 1351.2C181.04 1344.03 186.973 1338.1 194.148 1338.1C201.323 1338.1 207.257 1344.03 207.257 1351.2Z" fill="#B5D6D9"/>
<path d="M154.674 36.2842C154.674 43.5962 148.741 49.3906 141.566 49.3906C134.39 49.3906 128.457 43.4582 128.457 36.2842C128.457 29.1101 134.39 23.1777 141.566 23.1777C148.741 23.1777 154.674 29.1101 154.674 36.2842Z" fill="#B5D6D9"/>
<path d="M154.674 88.8476C154.674 96.1596 148.741 101.954 141.566 101.954C134.39 101.954 128.457 96.0217 128.457 88.8476C128.457 81.6736 134.39 75.7412 141.566 75.7412C148.741 75.7412 154.674 81.6736 154.674 88.8476Z" fill="#B5D6D9"/>
<path d="M154.674 141.549C154.674 148.861 148.741 154.655 141.566 154.655C134.39 154.655 128.457 148.723 128.457 141.549C128.457 134.375 134.39 128.443 141.566 128.443C148.741 128.443 154.674 134.375 154.674 141.549Z" fill="#B5D6D9"/>
<path d="M154.674 194.113C154.674 201.425 148.741 207.22 141.566 207.22C134.39 207.22 128.457 201.287 128.457 194.113C128.457 186.939 134.39 181.007 141.566 181.007C148.741 181.007 154.674 186.939 154.674 194.113Z" fill="#B5D6D9"/>
<path d="M154.674 246.676C154.674 253.988 148.741 259.783 141.566 259.783C134.39 259.783 128.457 253.851 128.457 246.676C128.457 239.502 134.39 233.57 141.566 233.57C148.741 233.57 154.674 239.502 154.674 246.676Z" fill="#B5D6D9"/>
<path d="M154.674 299.24C154.674 306.552 148.741 312.347 141.566 312.347C134.39 312.347 128.457 306.414 128.457 299.24C128.457 292.066 134.39 286.134 141.566 286.134C148.741 286.134 154.674 292.066 154.674 299.24Z" fill="#B5D6D9"/>
<path d="M154.674 351.804C154.674 359.116 148.741 364.911 141.566 364.911C134.39 364.911 128.457 358.978 128.457 351.804C128.457 344.63 134.39 338.698 141.566 338.698C148.741 338.698 154.674 344.63 154.674 351.804Z" fill="#B5D6D9"/>
<path d="M154.674 404.505C154.674 411.817 148.741 417.611 141.566 417.611C134.39 417.611 128.457 411.679 128.457 404.505C128.457 397.331 134.39 391.398 141.566 391.398C148.741 391.398 154.674 397.331 154.674 404.505Z" fill="#B5D6D9"/>
<path d="M154.674 457.069C154.674 464.381 148.741 470.175 141.566 470.175C134.39 470.175 128.457 464.243 128.457 457.069C128.457 449.895 134.39 443.962 141.566 443.962C148.741 443.962 154.674 449.895 154.674 457.069Z" fill="#B5D6D9"/>
<path d="M154.674 509.633C154.674 516.945 148.741 522.739 141.566 522.739C134.39 522.739 128.457 516.807 128.457 509.633C128.457 502.459 134.39 496.526 141.566 496.526C148.741 496.526 154.674 502.459 154.674 509.633Z" fill="#B5D6D9"/>
<path d="M154.674 562.196C154.674 569.508 148.741 575.303 141.566 575.303C134.39 575.303 128.457 569.37 128.457 562.196C128.457 555.022 134.39 549.09 141.566 549.09C148.741 549.09 154.674 555.022 154.674 562.196Z" fill="#B5D6D9"/>
<path d="M154.674 614.897C154.674 622.209 148.741 628.004 141.566 628.004C134.39 628.004 128.457 622.071 128.457 614.897C128.457 607.723 134.39 601.791 141.566 601.791C148.741 601.791 154.674 607.723 154.674 614.897Z" fill="#B5D6D9"/>
<path d="M154.674 667.461C154.674 674.773 148.741 680.568 141.566 680.568C134.39 680.568 128.457 674.635 128.457 667.461C128.457 660.287 134.39 654.355 141.566 654.355C148.741 654.355 154.674 660.287 154.674 667.461Z" fill="#B5D6D9"/>
<path d="M154.674 720.025C154.674 727.337 148.741 733.131 141.566 733.131C134.39 733.131 128.457 727.199 128.457 720.025C128.457 712.851 134.39 706.918 141.566 706.918C148.741 706.918 154.674 712.851 154.674 720.025Z" fill="#B5D6D9"/>
<path d="M154.674 772.588C154.674 779.9 148.741 785.695 141.566 785.695C134.39 785.695 128.457 779.762 128.457 772.588C128.457 765.414 134.39 759.482 141.566 759.482C148.741 759.482 154.674 765.414 154.674 772.588Z" fill="#B5D6D9"/>
<path d="M154.674 825.152C154.674 832.464 148.741 838.258 141.566 838.258C134.39 838.258 128.457 832.326 128.457 825.152C128.457 817.978 134.39 812.046 141.566 812.046C148.741 812.046 154.674 817.978 154.674 825.152Z" fill="#B5D6D9"/>
<path d="M154.674 877.853C154.674 885.165 148.741 890.96 141.566 890.96C134.39 890.96 128.457 885.027 128.457 877.853C128.457 870.679 134.39 864.747 141.566 864.747C148.741 864.747 154.674 870.679 154.674 877.853Z" fill="#B5D6D9"/>
<path d="M154.674 930.418C154.674 937.73 148.741 943.524 141.566 943.524C134.39 943.524 128.457 937.592 128.457 930.418C128.457 923.244 134.39 917.311 141.566 917.311C148.741 917.311 154.674 923.244 154.674 930.418Z" fill="#B5D6D9"/>
<path d="M154.674 982.981C154.674 990.293 148.741 996.088 141.566 996.088C134.39 996.088 128.457 990.155 128.457 982.981C128.457 975.807 134.39 969.875 141.566 969.875C148.741 969.875 154.674 975.807 154.674 982.981Z" fill="#B5D6D9"/>
<path d="M154.674 1035.54C154.674 1042.86 148.741 1048.65 141.566 1048.65C134.39 1048.65 128.457 1042.72 128.457 1035.54C128.457 1028.37 134.39 1022.44 141.566 1022.44C148.741 1022.44 154.674 1028.37 154.674 1035.54Z" fill="#B5D6D9"/>
<path d="M154.674 1088.11C154.674 1095.42 148.741 1101.21 141.566 1101.21C134.39 1101.21 128.457 1095.28 128.457 1088.11C128.457 1080.93 134.39 1075 141.566 1075C148.741 1075 154.674 1080.93 154.674 1088.11Z" fill="#B5D6D9"/>
<path d="M154.674 1140.81C154.674 1148.12 148.741 1153.92 141.566 1153.92C134.39 1153.92 128.457 1147.98 128.457 1140.81C128.457 1133.64 134.39 1127.7 141.566 1127.7C148.741 1127.7 154.674 1133.64 154.674 1140.81Z" fill="#B5D6D9"/>
<path d="M154.674 1193.37C154.674 1200.69 148.741 1206.48 141.566 1206.48C134.39 1206.48 128.457 1200.55 128.457 1193.37C128.457 1186.2 134.39 1180.27 141.566 1180.27C148.741 1180.27 154.674 1186.2 154.674 1193.37Z" fill="#B5D6D9"/>
<path d="M154.674 1245.94C154.674 1253.25 148.741 1259.04 141.566 1259.04C134.39 1259.04 128.457 1253.11 128.457 1245.94C128.457 1238.76 134.39 1232.83 141.566 1232.83C148.741 1232.83 154.674 1238.76 154.674 1245.94Z" fill="#B5D6D9"/>
<path d="M154.674 1298.5C154.674 1305.81 148.741 1311.61 141.566 1311.61C134.39 1311.61 128.457 1305.67 128.457 1298.5C128.457 1291.33 134.39 1285.39 141.566 1285.39C148.741 1285.39 154.674 1291.33 154.674 1298.5Z" fill="#B5D6D9"/>
<path d="M154.674 1351.2C154.674 1358.51 148.741 1364.31 141.566 1364.31C134.39 1364.31 128.457 1358.38 128.457 1351.2C128.457 1344.03 134.39 1338.1 141.566 1338.1C148.741 1338.1 154.674 1344.03 154.674 1351.2Z" fill="#B5D6D9"/>
<path d="M102.102 36.2842C102.102 43.5962 96.1687 49.3906 88.9935 49.3906C81.8182 49.3906 75.8849 43.4582 75.8849 36.2842C75.8849 29.1101 81.8182 23.1777 88.9935 23.1777C96.1687 23.1777 102.102 29.1101 102.102 36.2842Z" fill="#B5D6D9"/>
<path d="M102.102 88.8476C102.102 96.1596 96.1687 101.954 88.9935 101.954C81.8182 101.954 75.8849 96.0217 75.8849 88.8476C75.8849 81.6736 81.8182 75.7412 88.9935 75.7412C96.1687 75.7412 102.102 81.6736 102.102 88.8476Z" fill="#B5D6D9"/>
<path d="M102.102 141.549C102.102 148.861 96.1687 154.655 88.9935 154.655C81.8182 154.655 75.8849 148.723 75.8849 141.549C75.8849 134.375 81.8182 128.443 88.9935 128.443C96.1687 128.443 102.102 134.375 102.102 141.549Z" fill="#B5D6D9"/>
<path d="M102.102 194.113C102.102 201.425 96.1687 207.22 88.9935 207.22C81.8182 207.22 75.8849 201.287 75.8849 194.113C75.8849 186.939 81.8182 181.007 88.9935 181.007C96.1687 181.007 102.102 186.939 102.102 194.113Z" fill="#B5D6D9"/>
<path d="M102.102 246.676C102.102 253.988 96.1687 259.783 88.9935 259.783C81.8182 259.783 75.8849 253.851 75.8849 246.676C75.8849 239.502 81.8182 233.57 88.9935 233.57C96.1687 233.57 102.102 239.502 102.102 246.676Z" fill="#B5D6D9"/>
<path d="M102.102 299.24C102.102 306.552 96.1687 312.347 88.9935 312.347C81.8182 312.347 75.8849 306.414 75.8849 299.24C75.8849 292.066 81.8182 286.134 88.9935 286.134C96.1687 286.134 102.102 292.066 102.102 299.24Z" fill="#B5D6D9"/>
<path d="M102.102 351.804C102.102 359.116 96.1687 364.911 88.9935 364.911C81.8182 364.911 75.8849 358.978 75.8849 351.804C75.8849 344.63 81.8182 338.698 88.9935 338.698C96.1687 338.698 102.102 344.63 102.102 351.804Z" fill="#B5D6D9"/>
<path d="M102.102 404.505C102.102 411.817 96.1687 417.611 88.9935 417.611C81.8182 417.611 75.8849 411.679 75.8849 404.505C75.8849 397.331 81.8182 391.398 88.9935 391.398C96.1687 391.398 102.102 397.331 102.102 404.505Z" fill="#B5D6D9"/>
<path d="M102.102 457.069C102.102 464.381 96.1687 470.175 88.9935 470.175C81.8182 470.175 75.8849 464.243 75.8849 457.069C75.8849 449.895 81.8182 443.962 88.9935 443.962C96.1687 443.962 102.102 449.895 102.102 457.069Z" fill="#B5D6D9"/>
<path d="M102.102 509.633C102.102 516.945 96.1687 522.739 88.9935 522.739C81.8182 522.739 75.8849 516.807 75.8849 509.633C75.8849 502.459 81.8182 496.526 88.9935 496.526C96.1687 496.526 102.102 502.459 102.102 509.633Z" fill="#B5D6D9"/>
<path d="M102.102 562.196C102.102 569.508 96.1687 575.303 88.9935 575.303C81.8182 575.303 75.8849 569.37 75.8849 562.196C75.8849 555.022 81.8182 549.09 88.9935 549.09C96.1687 549.09 102.102 555.022 102.102 562.196Z" fill="#B5D6D9"/>
<path d="M102.102 614.897C102.102 622.209 96.1687 628.004 88.9935 628.004C81.8182 628.004 75.8849 622.071 75.8849 614.897C75.8849 607.723 81.8182 601.791 88.9935 601.791C96.1687 601.791 102.102 607.723 102.102 614.897Z" fill="#B5D6D9"/>
<path d="M102.102 667.461C102.102 674.773 96.1687 680.568 88.9935 680.568C81.8182 680.568 75.8849 674.635 75.8849 667.461C75.8849 660.287 81.8182 654.355 88.9935 654.355C96.1687 654.355 102.102 660.287 102.102 667.461Z" fill="#B5D6D9"/>
<path d="M102.102 720.025C102.102 727.337 96.1687 733.131 88.9935 733.131C81.8182 733.131 75.8849 727.199 75.8849 720.025C75.8849 712.851 81.8182 706.918 88.9935 706.918C96.1687 706.918 102.102 712.851 102.102 720.025Z" fill="#B5D6D9"/>
<path d="M102.102 772.588C102.102 779.9 96.1687 785.695 88.9935 785.695C81.8182 785.695 75.8849 779.762 75.8849 772.588C75.8849 765.414 81.8182 759.482 88.9935 759.482C96.1687 759.482 102.102 765.414 102.102 772.588Z" fill="#B5D6D9"/>
<path d="M102.102 825.152C102.102 832.464 96.1687 838.258 88.9935 838.258C81.8182 838.258 75.8849 832.326 75.8849 825.152C75.8849 817.978 81.8182 812.046 88.9935 812.046C96.1687 812.046 102.102 817.978 102.102 825.152Z" fill="#B5D6D9"/>
<path d="M102.102 877.853C102.102 885.165 96.1687 890.96 88.9935 890.96C81.8182 890.96 75.8849 885.027 75.8849 877.853C75.8849 870.679 81.8182 864.747 88.9935 864.747C96.1687 864.747 102.102 870.679 102.102 877.853Z" fill="#B5D6D9"/>
<path d="M102.102 930.418C102.102 937.73 96.1687 943.524 88.9935 943.524C81.8182 943.524 75.8849 937.592 75.8849 930.418C75.8849 923.244 81.8182 917.311 88.9935 917.311C96.1687 917.311 102.102 923.244 102.102 930.418Z" fill="#B5D6D9"/>
<path d="M102.102 982.981C102.102 990.293 96.1687 996.088 88.9935 996.088C81.8182 996.088 75.8849 990.155 75.8849 982.981C75.8849 975.807 81.8182 969.875 88.9935 969.875C96.1687 969.875 102.102 975.807 102.102 982.981Z" fill="#B5D6D9"/>
<path d="M102.102 1035.54C102.102 1042.86 96.1687 1048.65 88.9935 1048.65C81.8182 1048.65 75.8849 1042.72 75.8849 1035.54C75.8849 1028.37 81.8182 1022.44 88.9935 1022.44C96.1687 1022.44 102.102 1028.37 102.102 1035.54Z" fill="#B5D6D9"/>
<path d="M102.102 1088.11C102.102 1095.42 96.1687 1101.21 88.9935 1101.21C81.8182 1101.21 75.8849 1095.28 75.8849 1088.11C75.8849 1080.93 81.8182 1075 88.9935 1075C96.1687 1075 102.102 1080.93 102.102 1088.11Z" fill="#B5D6D9"/>
<path d="M102.102 1140.81C102.102 1148.12 96.1687 1153.92 88.9935 1153.92C81.8182 1153.92 75.8849 1147.98 75.8849 1140.81C75.8849 1133.64 81.8182 1127.7 88.9935 1127.7C96.1687 1127.7 102.102 1133.64 102.102 1140.81Z" fill="#B5D6D9"/>
<path d="M102.102 1193.37C102.102 1200.69 96.1687 1206.48 88.9935 1206.48C81.8182 1206.48 75.8849 1200.55 75.8849 1193.37C75.8849 1186.2 81.8182 1180.27 88.9935 1180.27C96.1687 1180.27 102.102 1186.2 102.102 1193.37Z" fill="#B5D6D9"/>
<path d="M102.102 1245.94C102.102 1253.25 96.1687 1259.04 88.9935 1259.04C81.8182 1259.04 75.8849 1253.11 75.8849 1245.94C75.8849 1238.76 81.8182 1232.83 88.9935 1232.83C96.1687 1232.83 102.102 1238.76 102.102 1245.94Z" fill="#B5D6D9"/>
<path d="M102.102 1298.5C102.102 1305.81 96.1687 1311.61 88.9935 1311.61C81.8182 1311.61 75.8849 1305.67 75.8849 1298.5C75.8849 1291.33 81.8182 1285.39 88.9935 1285.39C96.1687 1285.39 102.102 1291.33 102.102 1298.5Z" fill="#B5D6D9"/>
<path d="M102.102 1351.2C102.102 1358.51 96.1687 1364.31 88.9935 1364.31C81.8182 1364.31 75.8849 1358.38 75.8849 1351.2C75.8849 1344.03 81.8182 1338.1 88.9935 1338.1C96.1687 1338.1 102.102 1344.03 102.102 1351.2Z" fill="#B5D6D9"/>
<path d="M49.5283 36.2842C49.5283 43.5962 43.595 49.3906 36.4197 49.3906C29.2445 49.3906 23.3111 43.4582 23.3111 36.2842C23.3111 29.1101 29.2445 23.1777 36.4197 23.1777C43.595 23.1777 49.5283 29.1101 49.5283 36.2842Z" fill="#B5D6D9"/>
<path d="M49.5283 88.8476C49.5283 96.1596 43.595 101.954 36.4197 101.954C29.2445 101.954 23.3111 96.0217 23.3111 88.8476C23.3111 81.6736 29.2445 75.7412 36.4197 75.7412C43.595 75.7412 49.5283 81.6736 49.5283 88.8476Z" fill="#B5D6D9"/>
<path d="M49.5283 141.549C49.5283 148.861 43.595 154.655 36.4197 154.655C29.2445 154.655 23.3111 148.723 23.3111 141.549C23.3111 134.375 29.2445 128.443 36.4197 128.443C43.595 128.443 49.5283 134.375 49.5283 141.549Z" fill="#B5D6D9"/>
<path d="M49.5283 194.113C49.5283 201.425 43.595 207.22 36.4197 207.22C29.2445 207.22 23.3111 201.287 23.3111 194.113C23.3111 186.939 29.2445 181.007 36.4197 181.007C43.595 181.007 49.5283 186.939 49.5283 194.113Z" fill="#B5D6D9"/>
<path d="M49.5283 246.676C49.5283 253.988 43.595 259.783 36.4197 259.783C29.2445 259.783 23.3111 253.851 23.3111 246.676C23.3111 239.502 29.2445 233.57 36.4197 233.57C43.595 233.57 49.5283 239.502 49.5283 246.676Z" fill="#B5D6D9"/>
<path d="M49.5283 299.24C49.5283 306.552 43.595 312.347 36.4197 312.347C29.2445 312.347 23.3111 306.414 23.3111 299.24C23.3111 292.066 29.2445 286.134 36.4197 286.134C43.595 286.134 49.5283 292.066 49.5283 299.24Z" fill="#B5D6D9"/>
<path d="M49.5283 351.804C49.5283 359.116 43.595 364.911 36.4197 364.911C29.2445 364.911 23.3111 358.978 23.3111 351.804C23.3111 344.63 29.2445 338.698 36.4197 338.698C43.595 338.698 49.5283 344.63 49.5283 351.804Z" fill="#B5D6D9"/>
<path d="M49.5283 404.505C49.5283 411.817 43.595 417.611 36.4197 417.611C29.2445 417.611 23.3111 411.679 23.3111 404.505C23.3111 397.331 29.2445 391.398 36.4197 391.398C43.595 391.398 49.5283 397.331 49.5283 404.505Z" fill="#B5D6D9"/>
<path d="M49.5283 457.069C49.5283 464.381 43.595 470.175 36.4197 470.175C29.2445 470.175 23.3111 464.243 23.3111 457.069C23.3111 449.895 29.2445 443.962 36.4197 443.962C43.595 443.962 49.5283 449.895 49.5283 457.069Z" fill="#B5D6D9"/>
<path d="M49.5283 509.633C49.5283 516.945 43.595 522.739 36.4197 522.739C29.2445 522.739 23.3111 516.807 23.3111 509.633C23.3111 502.459 29.2445 496.526 36.4197 496.526C43.595 496.526 49.5283 502.459 49.5283 509.633Z" fill="#B5D6D9"/>
<path d="M49.5283 562.196C49.5283 569.508 43.595 575.303 36.4197 575.303C29.2445 575.303 23.3111 569.37 23.3111 562.196C23.3111 555.022 29.2445 549.09 36.4197 549.09C43.595 549.09 49.5283 555.022 49.5283 562.196Z" fill="#B5D6D9"/>
<path d="M49.5283 614.897C49.5283 622.209 43.595 628.004 36.4197 628.004C29.2445 628.004 23.3111 622.071 23.3111 614.897C23.3111 607.723 29.2445 601.791 36.4197 601.791C43.595 601.791 49.5283 607.723 49.5283 614.897Z" fill="#B5D6D9"/>
<path d="M49.5283 667.461C49.5283 674.773 43.595 680.568 36.4197 680.568C29.2445 680.568 23.3111 674.635 23.3111 667.461C23.3111 660.287 29.2445 654.355 36.4197 654.355C43.595 654.355 49.5283 660.287 49.5283 667.461Z" fill="#B5D6D9"/>
<path d="M49.5283 720.025C49.5283 727.337 43.595 733.131 36.4197 733.131C29.2445 733.131 23.3111 727.199 23.3111 720.025C23.3111 712.851 29.2445 706.918 36.4197 706.918C43.595 706.918 49.5283 712.851 49.5283 720.025Z" fill="#B5D6D9"/>
<path d="M49.5283 772.588C49.5283 779.9 43.595 785.695 36.4197 785.695C29.2445 785.695 23.3111 779.762 23.3111 772.588C23.3111 765.414 29.2445 759.482 36.4197 759.482C43.595 759.482 49.5283 765.414 49.5283 772.588Z" fill="#B5D6D9"/>
<path d="M49.5283 825.152C49.5283 832.464 43.595 838.258 36.4197 838.258C29.2445 838.258 23.3111 832.326 23.3111 825.152C23.3111 817.978 29.2445 812.046 36.4197 812.046C43.595 812.046 49.5283 817.978 49.5283 825.152Z" fill="#B5D6D9"/>
<path d="M49.5283 877.853C49.5283 885.165 43.595 890.96 36.4197 890.96C29.2445 890.96 23.3111 885.027 23.3111 877.853C23.3111 870.679 29.2445 864.747 36.4197 864.747C43.595 864.747 49.5283 870.679 49.5283 877.853Z" fill="#B5D6D9"/>
<path d="M49.5283 930.418C49.5283 937.73 43.595 943.524 36.4197 943.524C29.2445 943.524 23.3111 937.592 23.3111 930.418C23.3111 923.244 29.2445 917.311 36.4197 917.311C43.595 917.311 49.5283 923.244 49.5283 930.418Z" fill="#B5D6D9"/>
<path d="M49.5283 982.981C49.5283 990.293 43.595 996.088 36.4197 996.088C29.2445 996.088 23.3111 990.155 23.3111 982.981C23.3111 975.807 29.2445 969.875 36.4197 969.875C43.595 969.875 49.5283 975.807 49.5283 982.981Z" fill="#B5D6D9"/>
<path d="M49.5283 1035.54C49.5283 1042.86 43.595 1048.65 36.4197 1048.65C29.2445 1048.65 23.3111 1042.72 23.3111 1035.54C23.3111 1028.37 29.2445 1022.44 36.4197 1022.44C43.595 1022.44 49.5283 1028.37 49.5283 1035.54Z" fill="#B5D6D9"/>
<path d="M49.5283 1088.11C49.5283 1095.42 43.595 1101.21 36.4197 1101.21C29.2445 1101.21 23.3111 1095.28 23.3111 1088.11C23.3111 1080.93 29.2445 1075 36.4197 1075C43.595 1075 49.5283 1080.93 49.5283 1088.11Z" fill="#B5D6D9"/>
<path d="M49.5283 1140.81C49.5283 1148.12 43.595 1153.92 36.4197 1153.92C29.2445 1153.92 23.3111 1147.98 23.3111 1140.81C23.3111 1133.64 29.2445 1127.7 36.4197 1127.7C43.595 1127.7 49.5283 1133.64 49.5283 1140.81Z" fill="#B5D6D9"/>
<path d="M49.5283 1193.37C49.5283 1200.69 43.595 1206.48 36.4197 1206.48C29.2445 1206.48 23.3111 1200.55 23.3111 1193.37C23.3111 1186.2 29.2445 1180.27 36.4197 1180.27C43.595 1180.27 49.5283 1186.2 49.5283 1193.37Z" fill="#B5D6D9"/>
<path d="M49.5283 1245.94C49.5283 1253.25 43.595 1259.04 36.4197 1259.04C29.2445 1259.04 23.3111 1253.11 23.3111 1245.94C23.3111 1238.76 29.2445 1232.83 36.4197 1232.83C43.595 1232.83 49.5283 1238.76 49.5283 1245.94Z" fill="#B5D6D9"/>
<path d="M49.5283 1351.2C49.5283 1358.51 43.595 1364.31 36.4197 1364.31C29.2445 1364.31 23.3111 1358.38 23.3111 1351.2C23.3111 1344.03 29.2445 1338.1 36.4197 1338.1C43.595 1338.1 49.5283 1344.03 49.5283 1351.2Z" fill="#B5D6D9"/>
</g>
</g>
</svg>
