<svg xmlns="http://www.w3.org/2000/svg" xmlns:xlink="http://www.w3.org/1999/xlink" width="14.984" height="14.987" viewBox="0 0 14.984 14.987"><defs><clipPath id="a"><rect width="14.984" height="14.987"/></clipPath></defs><g clip-path="url(#a)"><path d="M6.774,7.506c-.1-.083-.151-.123-.2-.17Q3.407,4.168.238,1a.569.569,0,0,1-.2-.554A.533.533,0,0,1,.9.157C.95.2.991.241,1.035.285l6.3,6.3c.047.047.086.1.136.16.068-.065.117-.108.163-.155q3.186-3.187,6.37-6.376a.574.574,0,0,1,.552-.2.535.535,0,0,1,.3.856,1.709,1.709,0,0,1-.138.145Q11.562,4.178,8.4,7.341a1.723,1.723,0,0,1-.168.13c.071.075.115.123.161.169Q11.572,10.821,14.75,14a.881.881,0,0,1,.221.378.5.5,0,0,1-.259.534.531.531,0,0,1-.6-.047,1.819,1.819,0,0,1-.145-.139q-3.163-3.163-6.325-6.326a1.627,1.627,0,0,1-.124-.157l-.072-.024a.853.853,0,0,1-.1.171Q4.16,11.584.974,14.771a.558.558,0,0,1-.6.189.53.53,0,0,1-.256-.841,1.8,1.8,0,0,1,.139-.145q3.168-3.17,6.337-6.338a1.6,1.6,0,0,1,.18-.13" transform="translate(0 0)"/></g></svg>