<svg width="24" height="24" viewBox="0 0 24 24" fill="none" xmlns="http://www.w3.org/2000/svg">
<g id="ui-icons/navigation/search">
<path id="search" fill-rule="evenodd" clip-rule="evenodd" d="M3 11.1C3 6.62649 6.62649 3 11.1 3C15.5735 3 19.2 6.62649 19.2 11.1C19.2 13.0125 18.5372 14.7702 17.4287 16.1559L20.7364 19.4636C21.0879 19.8151 21.0879 20.3849 20.7364 20.7364C20.3849 21.0879 19.8151 21.0879 19.4636 20.7364L16.1559 17.4287C14.7702 18.5372 13.0125 19.2 11.1 19.2C6.62649 19.2 3 15.5735 3 11.1ZM15.6373 15.4707C15.6065 15.4944 15.5768 15.5204 15.5486 15.5486C15.5204 15.5768 15.4944 15.6065 15.4707 15.6373C14.3379 16.7288 12.7973 17.4 11.1 17.4C7.62061 17.4 4.8 14.5794 4.8 11.1C4.8 7.62061 7.62061 4.8 11.1 4.8C14.5794 4.8 17.4 7.62061 17.4 11.1C17.4 12.7973 16.7288 14.3379 15.6373 15.4707Z" fill="#F5F2F0"/>
</g>
</svg>
