<svg width="29" height="31" viewBox="0 0 29 31" fill="none" xmlns="http://www.w3.org/2000/svg">
<path d="M27.6825 29.3085L27.6825 29.3085L27.6773 29.3141C27.5158 29.4877 27.3248 29.6241 27.1161 29.7165C26.9076 29.809 26.6848 29.8562 26.4604 29.8562C26.2361 29.8562 26.0133 29.809 25.8048 29.7165C25.5961 29.6241 25.4051 29.4877 25.2436 29.3141L25.2437 29.314L25.2406 29.3108L18.2649 21.9384L17.9673 21.6238L17.6135 21.8735C15.3407 23.4773 12.5891 24.1276 9.89285 23.7034C7.19618 23.279 4.73873 21.8084 3.00236 19.5689C1.26545 17.3286 0.376376 14.481 0.513863 11.5801C0.651347 8.6792 1.80508 5.94105 3.74359 3.89706C5.68143 1.85378 8.26386 0.650605 10.9865 0.513217C13.709 0.375837 16.3866 1.31341 18.4981 3.15077C20.6104 4.98885 22.0053 7.59687 22.4036 10.4702C22.8019 13.3438 22.1738 16.2691 20.6457 18.6757L20.4369 19.0045L20.7046 19.2873L27.6803 26.6598L27.6825 26.6621C27.8459 26.8326 27.977 27.0372 28.067 27.2647C28.157 27.4922 28.2036 27.7372 28.2036 27.9853C28.2036 28.2334 28.157 28.4785 28.067 28.706C27.977 28.9335 27.8459 29.138 27.6825 29.3085Z" fill="#FF6B61" stroke="white"/>
<path d="M18.2639 12.1152C18.2639 16.1028 15.2083 19.3134 11.4655 19.3134C7.72261 19.3134 4.66706 16.1028 4.66706 12.1152C4.66706 8.12766 7.72261 4.91706 11.4655 4.91706C15.2083 4.91706 18.2639 8.12766 18.2639 12.1152Z" fill="white" stroke="white" stroke-width="0.459121"/>
</svg>
